<?xml version="1.0" encoding="UTF-8" standalone="no"?>
<!DOCTYPE svg PUBLIC "-//W3C//DTD SVG 1.1//EN" "http://www.w3.org/Graphics/SVG/1.1/DTD/svg11.dtd">
<!-- Generated by Microsoft Visio, SVG Export Codebase Overview Figure [v3.0].svg Page-1 -->
<svg xmlns="http://www.w3.org/2000/svg" xmlns:xlink="http://www.w3.org/1999/xlink" xmlns:ev="http://www.w3.org/2001/xml-events"
		width="8.5in" height="7.3in" viewBox="0 0 612 525.6" xml:space="preserve" color-interpolation-filters="sRGB" class="st24">
	<style type="text/css">
	<![CDATA[
		.st1 {fill:none;stroke:#008aaf;stroke-linecap:round;stroke-linejoin:round;stroke-width:1.5}
		.st2 {fill:none;stroke:none;stroke-linecap:round;stroke-linejoin:round;stroke-width:0.75}
		.st3 {fill:#008aaf;font-family:Noto Sans;font-size:1.00001em;font-weight:bold}
		.st4 {marker-end:url(#mrkr3-11);stroke:#00ffe0;stroke-dasharray:3.75,3.75;stroke-linecap:round;stroke-linejoin:round;stroke-width:1.25}
		.st5 {fill:#00ffe0;fill-opacity:1;stroke:#00ffe0;stroke-opacity:1;stroke-width:0.40983606557377}
		.st6 {stroke:#00ffe0;stroke-linecap:round;stroke-linejoin:round;stroke-width:1.5}
		.st7 {fill:#ffffff;stroke:#d0f5ff;stroke-linecap:round;stroke-linejoin:round;stroke-width:1.25}
		.st8 {fill:#a5a5a5;font-family:Noto Sans;font-size:0.916672em}
		.st9 {stroke:#00ccff;stroke-linecap:round;stroke-linejoin:round;stroke-width:1.5}
		.st10 {fill:#ffffff;stroke:#669aff;stroke-linecap:round;stroke-linejoin:round;stroke-width:1.25}
		.st11 {fill:#3d3d3d;font-family:Noto Sans;font-size:0.916672em}
		.st12 {font-size:1em}
		.st13 {fill:#ffffff;stroke:#00ccff;stroke-linecap:round;stroke-linejoin:round;stroke-width:1.25}
		.st14 {fill:#3d3d3d;font-family:Noto Sans;font-size:1.00001em}
		.st15 {stroke:#669aff;stroke-linecap:round;stroke-linejoin:round;stroke-width:1.5}
		.st16 {fill:#ffffff;stroke:#008aaf;stroke-linecap:round;stroke-linejoin:round;stroke-width:1.25}
		.st17 {stroke:#008aaf;stroke-linecap:round;stroke-linejoin:round;stroke-width:1.5}
		.st18 {marker-end:url(#mrkr3-77);stroke:#008aaf;stroke-dasharray:3.75,3.75;stroke-linecap:round;stroke-linejoin:round;stroke-width:1.25}
		.st19 {fill:#008aaf;fill-opacity:1;stroke:#008aaf;stroke-opacity:1;stroke-width:0.40983606557377}
		.st20 {fill:none;stroke:#0db9cb;stroke-linecap:round;stroke-linejoin:round;stroke-width:1.5}
		.st21 {fill:#0db9cb;font-family:Noto Sans;font-size:1.00001em;font-weight:bold}
		.st22 {fill:#ffffff;stroke:#00ffe0;stroke-linecap:round;stroke-linejoin:round;stroke-width:1.25}
		.st23 {font-size:0.909089em}
		.st24 {fill:none;fill-rule:evenodd;font-size:12px;overflow:visible;stroke-linecap:square;stroke-miterlimit:3}
	]]>
	</style>

	<defs id="Markers">
		<g id="lend3">
			<path d="M 2 1 L 0 0 L 2 -1 " style="stroke-linecap:round;stroke-linejoin:round;fill:none"/>
		</g>
		<marker id="mrkr3-11" class="st5" orient="auto" markerUnits="strokeWidth" overflow="visible">
			<use xlink:href="#lend3" transform="scale(-2.44,-2.44) "/>
		</marker>
		<marker id="mrkr3-77" class="st19" orient="auto" markerUnits="strokeWidth" overflow="visible">
			<use xlink:href="#lend3" transform="scale(-2.44,-2.44) "/>
		</marker>
	</defs>
	<g>
		<title>Page-1</title>
		<g id="shape1-1" transform="translate(18,-18)">
			<title>Sheet.1</title>
			<rect x="0" y="152.1" width="432" height="373.5" class="st1"/>
		</g>
		<g id="shape2-3" transform="translate(18,-373.5)">
			<title>Sheet.2</title>
			<desc>Elixxir Repositories</desc>
			<rect x="0" y="507.6" width="432" height="18" class="st2"/>
			<text x="313.38" y="520.2" class="st3">Elixxir Repositories</text>		</g>
		<g id="shape5-6" transform="translate(139.5,-360)">
			<title>Dynamic connector.66</title>
			<path d="M0 525.6 L-18 525.6 L-18 543.6" class="st4"/>
		</g>
		<g id="shape8-12" transform="translate(119.25,-306)">
			<title>Dynamic connector.69</title>
			<path d="M-2.25 525.6 L-2.25 543.6 L-15.75 543.6" class="st4"/>
		</g>
		<g id="shape9-17" transform="translate(123.75,-306)">
			<title>Dynamic connector.70</title>
			<path d="M2.25 525.6 L2.25 543.6 L15.75 543.6" class="st4"/>
		</g>
		<g id="shape10-22" transform="translate(31.5,-265.5)">
			<title>Sheet.10</title>
			<path d="M0 525.6 L180 525.6" class="st6"/>
		</g>
		<g id="shape11-25" transform="translate(243,-310.5)">
			<title>Sheet.11</title>
			<desc>Devops</desc>
			<rect x="0" y="498.6" width="90" height="27" class="st7"/>
			<text x="25.74" y="515.4" class="st8">Devops</text>		</g>
		<g id="shape12-28" transform="translate(238.5,-265.5)">
			<title>Sheet.12</title>
			<path d="M0 525.6 L198 525.6" class="st9"/>
		</g>
		<g id="shape13-31" transform="translate(243,-274.5)">
			<title>Sheet.13</title>
			<desc>Local Environment</desc>
			<rect x="0" y="498.6" width="90" height="27" class="st10"/>
			<text x="31.65" y="508.8" class="st11">Local <tspan x="11.7" dy="1.2em" class="st12">Environment</tspan></text>		</g>
		<g id="shape14-35" transform="translate(342,-274.5)">
			<title>Sheet.14</title>
			<desc>Wrapper Script</desc>
			<rect x="0" y="498.6" width="90" height="27" class="st13"/>
			<text x="6.24" y="515.4" class="st11">Wrapper Script</text>		</g>
		<g id="shape15-38" transform="translate(342,-310.5)">
			<title>Sheet.15</title>
			<desc>Integration</desc>
			<rect x="0" y="498.6" width="90" height="27" class="st10"/>
			<text x="15.78" y="515.4" class="st11">Integration</text>		</g>
		<g id="shape16-41" transform="translate(166.4,-247.5)">
			<title>Sheet.16</title>
			<desc>Core</desc>
			<rect x="0" y="507.6" width="45.1" height="18" class="st2"/>
			<text x="11.33" y="522" class="st14">Core</text>		</g>
		<g id="shape17-44" transform="translate(374.9,-247.5)">
			<title>Sheet.17</title>
			<desc>Tools</desc>
			<rect x="0" y="507.6" width="61.6" height="18" class="st2"/>
			<text x="24.36" y="522" class="st14">Tools</text>		</g>
		<g id="shape21-47" transform="translate(139.5,-121.5)">
			<title>Sheet.21</title>
			<path d="M0 525.6 L297 525.6" class="st15"/>
		</g>
		<g id="shape22-50" transform="translate(374.9,-103.5)">
			<title>Sheet.22</title>
			<desc>Services</desc>
			<rect x="0" y="507.6" width="61.6" height="18" class="st2"/>
			<text x="8.63" y="522" class="st14">Services</text>		</g>
		<g id="shape24-53" transform="translate(63,-261)">
			<title>Dynamic connector.87</title>
			<path d="M9 525.6 L9 624.6" class="st4"/>
		</g>
		<g id="shape25-58" transform="translate(153,-261)">
			<title>Dynamic connector.89</title>
			<path d="M9 525.6 L9 588.6" class="st4"/>
		</g>
		<g id="shape26-63" transform="translate(144,-58.5)">
			<title>Sheet.26</title>
			<desc>User Discovery</desc>
			<rect x="0" y="498.6" width="90" height="27" class="st16"/>
			<text x="6.54" y="515.4" class="st11">User Discovery</text>		</g>
		<g id="shape29-66" transform="translate(139.5,-49.5)">
			<title>Sheet.29</title>
			<path d="M0 525.6 L297 525.6" class="st17"/>
		</g>
		<g id="shape30-69" transform="translate(374.9,-31.5)">
			<title>Sheet.30</title>
			<desc>Clients</desc>
			<rect x="0" y="507.6" width="61.6" height="18" class="st2"/>
			<text x="16.37" y="522" class="st14">Clients</text>		</g>
		<g id="shape31-72" transform="translate(72,-126)">
			<title>Dynamic connector.96</title>
			<path d="M0 525.6 L0 579.6 L67.5 579.6" class="st18"/>
		</g>
		<g id="shape34-78" transform="translate(18,-409.5)">
			<title>Sheet.34</title>
			<rect x="0" y="426.6" width="432" height="99" class="st20"/>
		</g>
		<g id="shape35-80" transform="translate(18,-490.5)">
			<title>Sheet.35</title>
			<desc>xx network Repositories</desc>
			<rect x="0" y="507.6" width="432" height="18" class="st2"/>
			<text x="282.65" y="520.2" class="st21">xx network Repositories</text>		</g>
		<g id="shape37-83" transform="translate(144,-346.5)">
			<title>Sheet.37</title>
			<desc>Primitives</desc>
			<rect x="0" y="498.6" width="63" height="27" class="st22"/>
			<text x="5.99" y="515.4" class="st11">Primitives</text>		</g>
		<g id="shape39-86" transform="translate(90,-310.5)">
			<title>Sheet.39</title>
			<desc>Crypto</desc>
			<rect x="0" y="498.6" width="63" height="27" class="st22"/>
			<text x="14.25" y="515.4" class="st11">Crypto</text>		</g>
		<g id="shape41-89" transform="translate(36,-274.5)">
			<title>Sheet.41</title>
			<desc>Comms</desc>
			<rect x="0" y="498.6" width="63" height="27" class="st22"/>
			<text x="11.78" y="515.4" class="st11">Comms</text>		</g>
		<g id="shape42-92" transform="translate(144,-274.5)">
			<title>Sheet.42</title>
			<desc>GPUMaths</desc>
			<rect x="0" y="498.6" width="63" height="27" class="st22"/>
			<text x="4.05" y="515.4" class="st11">GPUMaths</text>		</g>
		<g id="shape49-95" transform="translate(31.5,-445.5)">
			<title>Sheet.49</title>
			<path d="M0 525.6 L252 525.6" class="st6"/>
		</g>
		<g id="shape50-98" transform="translate(238.45,-427.5)">
			<title>Sheet.50</title>
			<desc>Core</desc>
			<rect x="0" y="507.6" width="45.1" height="18" class="st2"/>
			<text x="11.33" y="522" class="st14">Core</text>		</g>
		<g id="shape51-101" transform="translate(36,-454.5)">
			<title>Sheet.51</title>
			<desc>Comms</desc>
			<rect x="0" y="498.6" width="63" height="27" class="st22"/>
			<text x="11.78" y="515.4" class="st11">Comms</text>		</g>
		<g id="shape60-104" transform="translate(144,-130.5)">
			<title>Sheet.60</title>
			<desc>Server</desc>
			<rect x="0" y="498.6" width="90" height="27" class="st22"/>
			<text x="28.44" y="515.4" class="st11">Server</text>		</g>
		<g id="shape63-107" transform="translate(243,-130.5)">
			<title>Sheet.63</title>
			<desc>Gateway</desc>
			<rect x="0" y="498.6" width="90" height="27" class="st22"/>
			<text x="22.61" y="515.4" class="st11">Gateway</text>		</g>
		<g id="shape108-110" transform="translate(36,-130.5)">
			<title>Sheet.108</title>
			<desc>Client API (xxDK)</desc>
			<rect x="0" y="498.6" width="72" height="27" class="st16"/>
			<text x="11.07" y="508.8" class="st11">Client API <tspan x="20.43" dy="1.32em" class="st23">(xxDK)</tspan></text>		</g>
		<g id="shape113-114" transform="translate(63,-441)">
			<title>Dynamic connector.113</title>
			<path d="M9 525.6 L9 611.1" class="st4"/>
		</g>
		<g id="shape114-119" transform="translate(216,-454.5)">
			<title>Sheet.114</title>
			<desc>Primitives</desc>
			<rect x="0" y="498.6" width="63" height="27" class="st22"/>
			<text x="5.99" y="515.4" class="st11">Primitives</text>		</g>
		<g id="shape115-122" transform="translate(126,-454.5)">
			<title>Sheet.115</title>
			<desc>Crypto</desc>
			<rect x="0" y="498.6" width="63" height="27" class="st22"/>
			<text x="14.25" y="515.4" class="st11">Crypto</text>		</g>
		<g id="shape117-125" transform="translate(211.5,-459)">
			<title>Dynamic connector.117</title>
			<path d="M0 516.6 L-18 516.6" class="st4"/>
		</g>
		<g id="shape118-130" transform="translate(121.5,-459)">
			<title>Dynamic connector.118</title>
			<path d="M0 516.6 L-18 516.6" class="st4"/>
		</g>
		<g id="shape119-135" transform="translate(342,-130.5)">
			<title>Sheet.119</title>
			<desc>Registration</desc>
			<rect x="0" y="498.6" width="90" height="27" class="st22"/>
			<text x="13.57" y="515.4" class="st11">Registration</text>		</g>
		<g id="shape161-138" transform="translate(342,-202.5)">
			<title>Sheet.161</title>
			<desc>Client Registrar</desc>
			<rect x="0" y="498.6" width="90" height="27" class="st22"/>
			<text x="5.2" y="515.4" class="st11">Client Registrar</text>		</g>
		<g id="shape162-141" transform="translate(243,-166.5)">
			<title>Sheet.162</title>
			<desc>Notifications</desc>
			<rect x="0" y="498.6" width="90" height="27" class="st22"/>
			<text x="12.29" y="515.4" class="st11">Notifications</text>		</g>
		<g id="shape163-144" transform="translate(342,-166.5)">
			<title>Sheet.163</title>
			<desc>Authorizor</desc>
			<rect x="0" y="498.6" width="90" height="27" class="st22"/>
			<text x="17.5" y="515.4" class="st11">Authorizor</text>		</g>
		<g id="shape164-147" transform="translate(144,-166.5)">
			<title>Sheet.164</title>
			<desc>Scheduling Scripts</desc>
			<rect x="0" y="498.6" width="90" height="27" class="st22"/>
			<text x="16.44" y="508.8" class="st11">Scheduling <tspan x="27.65" dy="1.2em" class="st12">Scripts</tspan></text>		</g>
		<g id="shape165-151" transform="translate(243,-58.5)">
			<title>Sheet.165</title>
			<desc>iOS Client</desc>
			<rect x="0" y="498.6" width="90" height="27" class="st16"/>
			<text x="20.04" y="515.4" class="st11">iOS Client</text>		</g>
		<g id="shape166-154" transform="translate(342,-58.5)">
			<title>Sheet.166</title>
			<desc>Android Client</desc>
			<rect x="0" y="498.6" width="90" height="27" class="st16"/>
			<text x="8.07" y="515.4" class="st11">Android Client</text>		</g>
		<g id="shape167-157" transform="translate(468,-238.5)">
			<title>Sheet.167</title>
			<rect x="0" y="372.6" width="126" height="153" class="st20"/>
		</g>
		<g id="shape168-159" transform="translate(486,-324)">
			<title>Sheet.168</title>
			<desc>Sleeve</desc>
			<rect x="0" y="498.6" width="90" height="27" class="st22"/>
			<text x="28.47" y="515.4" class="st11">Sleeve</text>		</g>
		<g id="shape169-162" transform="translate(486,-288)">
			<title>Sheet.169</title>
			<desc>xx-substrate</desc>
			<rect x="0" y="498.6" width="90" height="27" class="st22"/>
			<text x="12.83" y="515.4" class="st11">xx-substrate</text>		</g>
		<g id="shape170-165" transform="translate(486,-252)">
			<title>Sheet.170</title>
			<desc>Xx-chain</desc>
			<rect x="0" y="498.6" width="90" height="27" class="st22"/>
			<text x="23.06" y="515.4" class="st11">Xx-chain</text>		</g>
		<g id="shape171-168" transform="translate(468,-360)">
			<title>Sheet.171</title>
			<desc>xx labs Repositories</desc>
			<rect x="0" y="494.1" width="126" height="31.5" class="st2"/>
			<text x="80.54" y="506.25" class="st21">xx labs <tspan x="47.53" dy="1.2em" class="st12">Repositories</tspan></text>		</g>
	</g>
</svg>
