<?xml version="1.0" encoding="utf-8"?>
<!-- Generator: Adobe Illustrator 16.0.0, SVG Export Plug-In . SVG Version: 6.00 Build 0)  -->
<!DOCTYPE svg PUBLIC "-//W3C//DTD SVG 1.1//EN" "http://www.w3.org/Graphics/SVG/1.1/DTD/svg11.dtd">
<svg version="1.1" id="Layer_1" xmlns="http://www.w3.org/2000/svg" xmlns:xlink="http://www.w3.org/1999/xlink" x="0px" y="0px"
	 width="157.792px" height="21.923px" viewBox="0 0 157.792 21.923" enable-background="new 0 0 157.792 21.923"
	 xml:space="preserve">
<g>
	<g>
		<g opacity="0.6588">
			<path fill="#4E4E4E" d="M0.863,16.29v-1.413c0.162,0.143,0.356,0.271,0.582,0.386c0.226,0.114,0.464,0.21,0.713,0.289
				c0.25,0.078,0.5,0.139,0.753,0.182c0.252,0.043,0.485,0.064,0.699,0.064c0.737,0,1.288-0.137,1.652-0.411
				c0.364-0.273,0.546-0.667,0.546-1.181c0-0.276-0.061-0.516-0.182-0.721c-0.121-0.205-0.289-0.392-0.503-0.561
				c-0.214-0.169-0.468-0.331-0.76-0.485c-0.292-0.154-0.608-0.317-0.945-0.489c-0.357-0.181-0.69-0.364-0.999-0.549
				c-0.31-0.186-0.578-0.39-0.807-0.614s-0.408-0.477-0.539-0.76C0.943,9.745,0.878,9.413,0.878,9.032
				c0-0.466,0.102-0.872,0.307-1.217C1.389,7.47,1.658,7.186,1.991,6.962s0.712-0.39,1.138-0.5s0.86-0.164,1.302-0.164
				c1.009,0,1.744,0.121,2.205,0.364v1.349c-0.604-0.419-1.38-0.628-2.326-0.628c-0.262,0-0.523,0.028-0.785,0.083
				S3.03,7.609,2.826,7.733c-0.205,0.124-0.371,0.283-0.5,0.478C2.198,8.406,2.134,8.645,2.134,8.925
				c0,0.262,0.049,0.488,0.146,0.678c0.097,0.19,0.241,0.364,0.432,0.521c0.19,0.157,0.422,0.309,0.696,0.457
				c0.273,0.147,0.589,0.31,0.945,0.485c0.366,0.181,0.714,0.371,1.042,0.571s0.616,0.421,0.864,0.664
				c0.247,0.243,0.443,0.512,0.588,0.807s0.218,0.633,0.218,1.013c0,0.504-0.099,0.932-0.296,1.281
				c-0.198,0.35-0.464,0.634-0.799,0.853c-0.335,0.219-0.722,0.377-1.16,0.475c-0.438,0.098-0.899,0.146-1.385,0.146
				c-0.162,0-0.361-0.013-0.599-0.04c-0.238-0.026-0.481-0.064-0.728-0.114c-0.248-0.05-0.482-0.112-0.703-0.186
				S0.997,16.38,0.863,16.29z"/>
			<path fill="#4E4E4E" d="M9.548,7.541c-0.209,0-0.388-0.071-0.535-0.214C8.866,7.184,8.792,7.003,8.792,6.784
				s0.074-0.401,0.221-0.546s0.326-0.218,0.535-0.218c0.214,0,0.396,0.073,0.546,0.218s0.225,0.327,0.225,0.546
				c0,0.209-0.075,0.388-0.225,0.535S9.762,7.541,9.548,7.541z M10.119,16.704h-1.17V9.396h1.17V16.704z"/>
			<path fill="#4E4E4E" d="M18.726,16.119c0,2.683-1.285,4.025-3.854,4.025c-0.904,0-1.694-0.171-2.37-0.514v-1.17
				c0.823,0.457,1.608,0.685,2.355,0.685c1.798,0,2.698-0.956,2.698-2.869v-0.799h-0.029c-0.556,0.933-1.394,1.399-2.512,1.399
				c-0.909,0-1.64-0.325-2.194-0.974s-0.832-1.521-0.832-2.616c0-1.242,0.298-2.229,0.896-2.961
				c0.597-0.732,1.414-1.099,2.452-1.099c0.985,0,1.715,0.395,2.19,1.185h0.029V9.396h1.17V16.119z M17.556,13.399v-1.078
				c0-0.58-0.196-1.078-0.589-1.491c-0.393-0.414-0.881-0.621-1.466-0.621c-0.723,0-1.29,0.263-1.699,0.789
				c-0.409,0.526-0.614,1.262-0.614,2.209c0,0.813,0.196,1.464,0.589,1.952s0.912,0.731,1.56,0.731c0.656,0,1.19-0.233,1.602-0.699
				C17.35,14.725,17.556,14.127,17.556,13.399z"/>
			<path fill="#4E4E4E" d="M27.161,16.704h-1.17v-4.167c0-1.551-0.566-2.327-1.698-2.327c-0.585,0-1.069,0.22-1.452,0.66
				c-0.383,0.44-0.575,0.996-0.575,1.667v4.167h-1.17V9.396h1.17v1.213h0.028c0.552-0.923,1.352-1.385,2.398-1.385
				c0.799,0,1.411,0.258,1.834,0.774s0.635,1.262,0.635,2.237V16.704z"/>
			<path fill="#4E4E4E" d="M38.601,16.704h-1.17v-1.142h-0.028c-0.509,0.875-1.259,1.313-2.248,1.313
				c-0.728,0-1.298-0.193-1.709-0.578c-0.412-0.385-0.618-0.897-0.618-1.534c0-1.366,0.804-2.16,2.412-2.384l2.191-0.307
				c0-1.242-0.502-1.863-1.506-1.863c-0.88,0-1.674,0.3-2.383,0.899V9.91c0.718-0.457,1.546-0.685,2.483-0.685
				c1.717,0,2.576,0.909,2.576,2.726V16.704z M37.43,13.007l-1.763,0.243c-0.542,0.076-0.952,0.21-1.228,0.403
				s-0.414,0.534-0.414,1.024c0,0.357,0.127,0.648,0.382,0.875c0.254,0.226,0.593,0.339,1.017,0.339c0.581,0,1.06-0.204,1.438-0.61
				c0.378-0.407,0.567-0.921,0.567-1.545V13.007z"/>
			<path fill="#4E4E4E" d="M46.872,16.704h-1.17v-4.167c0-1.551-0.566-2.327-1.698-2.327c-0.585,0-1.069,0.22-1.452,0.66
				c-0.383,0.44-0.575,0.996-0.575,1.667v4.167h-1.17V9.396h1.17v1.213h0.028c0.552-0.923,1.352-1.385,2.398-1.385
				c0.799,0,1.411,0.258,1.834,0.774s0.635,1.262,0.635,2.237V16.704z"/>
			<path fill="#4E4E4E" d="M55.314,16.704h-1.17v-1.242h-0.029c-0.542,0.942-1.379,1.413-2.512,1.413
				c-0.918,0-1.652-0.327-2.202-0.981c-0.549-0.654-0.824-1.545-0.824-2.672c0-1.208,0.304-2.177,0.914-2.905
				c0.609-0.728,1.42-1.092,2.434-1.092c1.003,0,1.734,0.395,2.19,1.185h0.029V5.885h1.17V16.704z M54.144,13.399v-1.078
				c0-0.59-0.195-1.089-0.585-1.499c-0.391-0.409-0.885-0.614-1.484-0.614c-0.714,0-1.275,0.262-1.685,0.785
				s-0.614,1.247-0.614,2.169c0,0.842,0.196,1.507,0.589,1.995s0.919,0.731,1.581,0.731c0.652,0,1.181-0.235,1.588-0.707
				S54.144,14.118,54.144,13.399z"/>
			<path fill="#4E4E4E" d="M61.365,16.29v-1.413c0.162,0.143,0.356,0.271,0.582,0.386c0.227,0.114,0.465,0.21,0.714,0.289
				c0.25,0.078,0.501,0.139,0.753,0.182c0.252,0.043,0.485,0.064,0.699,0.064c0.737,0,1.288-0.137,1.652-0.411
				c0.363-0.273,0.546-0.667,0.546-1.181c0-0.276-0.061-0.516-0.183-0.721c-0.121-0.205-0.289-0.392-0.502-0.561
				c-0.215-0.169-0.469-0.331-0.761-0.485c-0.292-0.154-0.608-0.317-0.945-0.489c-0.356-0.181-0.69-0.364-0.999-0.549
				c-0.31-0.186-0.578-0.39-0.807-0.614s-0.408-0.477-0.539-0.76c-0.131-0.283-0.195-0.615-0.195-0.995
				c0-0.466,0.102-0.872,0.307-1.217c0.204-0.345,0.473-0.629,0.807-0.853c0.332-0.224,0.712-0.39,1.138-0.5s0.86-0.164,1.302-0.164
				c1.01,0,1.744,0.121,2.205,0.364v1.349c-0.604-0.419-1.379-0.628-2.326-0.628c-0.262,0-0.523,0.028-0.785,0.083
				s-0.494,0.144-0.699,0.268c-0.204,0.124-0.371,0.283-0.499,0.478c-0.129,0.195-0.192,0.433-0.192,0.713
				c0,0.262,0.049,0.488,0.146,0.678c0.097,0.19,0.24,0.364,0.432,0.521c0.189,0.157,0.422,0.309,0.695,0.457
				s0.589,0.31,0.945,0.485c0.366,0.181,0.714,0.371,1.042,0.571s0.616,0.421,0.864,0.664c0.246,0.243,0.443,0.512,0.588,0.807
				s0.218,0.633,0.218,1.013c0,0.504-0.099,0.932-0.296,1.281s-0.464,0.634-0.799,0.853c-0.336,0.219-0.723,0.377-1.16,0.475
				c-0.438,0.098-0.899,0.146-1.385,0.146c-0.162,0-0.361-0.013-0.6-0.04c-0.238-0.026-0.48-0.064-0.728-0.114
				c-0.247-0.05-0.481-0.112-0.703-0.186S61.499,16.38,61.365,16.29z"/>
			<path fill="#4E4E4E" d="M75.36,16.704h-1.171v-1.156h-0.028c-0.485,0.885-1.237,1.328-2.255,1.328
				c-1.741,0-2.611-1.037-2.611-3.111V9.396h1.162v4.182c0,1.541,0.59,2.312,1.77,2.312c0.572,0,1.041-0.21,1.41-0.632
				c0.369-0.421,0.553-0.972,0.553-1.652v-4.21h1.171V16.704z"/>
			<path fill="#4E4E4E" d="M78.92,15.647h-0.028v1.056h-1.17V5.885h1.17v4.796h0.028c0.575-0.971,1.418-1.456,2.526-1.456
				c0.938,0,1.672,0.327,2.201,0.981c0.531,0.654,0.797,1.531,0.797,2.63c0,1.223-0.298,2.201-0.893,2.937
				c-0.595,0.735-1.408,1.103-2.441,1.103C80.146,16.875,79.416,16.466,78.92,15.647z M78.892,12.7v1.021
				c0,0.604,0.196,1.117,0.589,1.538c0.393,0.421,0.891,0.632,1.495,0.632c0.709,0,1.264-0.271,1.666-0.813
				c0.402-0.542,0.604-1.296,0.604-2.262c0-0.813-0.188-1.451-0.564-1.913c-0.375-0.461-0.885-0.692-1.527-0.692
				c-0.68,0-1.227,0.237-1.641,0.71C79.099,11.393,78.892,11.986,78.892,12.7z"/>
			<path fill="#4E4E4E" d="M96.691,16.704H95.52v-4.196c0-0.809-0.125-1.394-0.375-1.755c-0.249-0.361-0.669-0.542-1.259-0.542
				c-0.5,0-0.925,0.229-1.274,0.685c-0.35,0.457-0.524,1.004-0.524,1.642v4.167h-1.17v-4.339c0-1.437-0.555-2.155-1.663-2.155
				c-0.515,0-0.938,0.215-1.271,0.646s-0.5,0.991-0.5,1.681v4.167h-1.17V9.396h1.17v1.156h0.029c0.518-0.885,1.275-1.328,2.27-1.328
				c0.499,0,0.935,0.139,1.306,0.417s0.626,0.644,0.764,1.096c0.542-1.009,1.351-1.513,2.427-1.513c1.607,0,2.412,0.992,2.412,2.976
				V16.704z"/>
			<path fill="#4E4E4E" d="M99.501,7.541c-0.209,0-0.387-0.071-0.535-0.214c-0.146-0.143-0.221-0.324-0.221-0.542
				s0.074-0.401,0.221-0.546c0.148-0.145,0.326-0.218,0.535-0.218c0.215,0,0.396,0.073,0.547,0.218
				c0.149,0.145,0.225,0.327,0.225,0.546c0,0.209-0.075,0.388-0.225,0.535C99.898,7.467,99.716,7.541,99.501,7.541z M100.073,16.704
				h-1.171V9.396h1.171V16.704z"/>
			<path fill="#4E4E4E" d="M105.832,16.632c-0.275,0.152-0.639,0.229-1.092,0.229c-1.279,0-1.919-0.714-1.919-2.141v-4.325h-1.257
				V9.396h1.257V7.612l1.171-0.378v2.162h1.84v0.999h-1.84v4.118c0,0.49,0.082,0.84,0.249,1.049
				c0.167,0.209,0.442,0.314,0.828,0.314c0.295,0,0.55-0.081,0.763-0.243V16.632z"/>
		</g>
	</g>
	<g>
		<path fill="#037281" d="M124.864,0h21.967c6.054,0,10.961,4.908,10.961,10.961c0,6.054-4.907,10.961-10.961,10.961h-21.967
			c-6.055,0-10.962-4.907-10.962-10.961C113.902,4.908,118.809,0,124.864,0z"/>
		<circle fill="#FFFFFF" cx="146.831" cy="10.961" r="10.049"/>
	</g>
</g>
<g>
</g>
<g>
</g>
<g>
</g>
<g>
</g>
<g>
</g>
<g>
</g>
</svg>
