<?xml version="1.0" encoding="utf-8"?>
<!-- Generator: Adobe Illustrator 16.0.0, SVG Export Plug-In . SVG Version: 6.00 Build 0)  -->
<!DOCTYPE svg PUBLIC "-//W3C//DTD SVG 1.1//EN" "http://www.w3.org/Graphics/SVG/1.1/DTD/svg11.dtd">
<svg version="1.1" id="Layer_1" xmlns="http://www.w3.org/2000/svg" xmlns:xlink="http://www.w3.org/1999/xlink" x="0px" y="0px"
	 width="62.235px" height="27.98px" viewBox="0 0 62.235 27.98" enable-background="new 0 0 62.235 27.98" xml:space="preserve">
<g>
	<defs>
		<rect id="SVGID_1_" width="62.235" height="27.98"/>
	</defs>
	<clipPath id="SVGID_2_">
		<use xlink:href="#SVGID_1_"  overflow="visible"/>
	</clipPath>
	<g clip-path="url(#SVGID_2_)">
		<defs>
			<rect id="SVGID_3_" y="0" width="62.235" height="27.98"/>
		</defs>
		<clipPath id="SVGID_4_">
			<use xlink:href="#SVGID_3_"  overflow="visible"/>
		</clipPath>
		<path clip-path="url(#SVGID_4_)" fill="#037281" d="M27.98,13.99c0,7.727-6.264,13.99-13.99,13.99C6.264,27.98,0,21.717,0,13.99
			C0,6.263,6.264,0,13.991,0C21.716,0,27.98,6.263,27.98,13.99"/>
		<g clip-path="url(#SVGID_4_)">
			<path fill="#4E4E4E" d="M42.418,9.19l-3.628,9.796h-1.264L33.975,9.19h1.277l2.712,7.767c0.087,0.251,0.152,0.54,0.198,0.868
				h0.027c0.036-0.273,0.111-0.567,0.226-0.882l2.767-7.753H42.418z"/>
			<path fill="#4E4E4E" d="M46.599,19.15c-1.034,0-1.859-0.327-2.477-0.98s-0.925-1.52-0.925-2.6c0-1.174,0.32-2.092,0.963-2.752
				c0.642-0.66,1.51-0.991,2.603-0.991c1.043,0,1.856,0.321,2.442,0.963c0.585,0.642,0.878,1.533,0.878,2.671
				c0,1.115-0.315,2.009-0.946,2.681S47.66,19.15,46.599,19.15z M46.681,12.77c-0.72,0-1.289,0.245-1.708,0.734
				s-0.628,1.165-0.628,2.025c0,0.829,0.212,1.482,0.635,1.961c0.424,0.479,0.991,0.718,1.701,0.718c0.725,0,1.281-0.235,1.67-0.704
				c0.39-0.469,0.584-1.136,0.584-2.002c0-0.874-0.194-1.548-0.584-2.021C47.962,13.007,47.405,12.77,46.681,12.77z"/>
			<path fill="#4E4E4E" d="M55.117,18.918c-0.265,0.146-0.612,0.219-1.045,0.219c-1.226,0-1.838-0.684-1.838-2.05v-4.139h-1.202
				v-0.957h1.202v-1.708l1.12-0.362v2.07h1.763v0.957h-1.763v3.942c0,0.469,0.08,0.804,0.239,1.004s0.424,0.301,0.792,0.301
				c0.282,0,0.526-0.078,0.731-0.232V18.918z"/>
			<path fill="#4E4E4E" d="M62.234,15.769h-4.938c0.018,0.779,0.228,1.38,0.628,1.804c0.401,0.424,0.952,0.636,1.653,0.636
				c0.788,0,1.512-0.26,2.173-0.779v1.052c-0.615,0.446-1.428,0.67-2.439,0.67c-0.988,0-1.765-0.317-2.329-0.953
				c-0.564-0.635-0.847-1.529-0.847-2.682c0-1.088,0.308-1.975,0.925-2.66s1.384-1.028,2.299-1.028c0.916,0,1.624,0.296,2.125,0.888
				c0.501,0.592,0.751,1.414,0.751,2.466V15.769z M61.087,14.819c-0.005-0.646-0.16-1.15-0.468-1.51s-0.734-0.54-1.281-0.54
				c-0.528,0-0.977,0.189-1.346,0.567s-0.597,0.872-0.683,1.482H61.087z"/>
		</g>
		<g opacity="0.8745" clip-path="url(#SVGID_4_)">
			<g>
				<defs>
					<rect id="SVGID_5_" x="7.084" y="8.84" width="13.812" height="10.299"/>
				</defs>
				<clipPath id="SVGID_6_">
					<use xlink:href="#SVGID_5_"  overflow="visible"/>
				</clipPath>
				<path clip-path="url(#SVGID_6_)" fill="#FFFDFB" d="M11.775,18.938l-4.489-4.489c-0.269-0.269-0.269-0.707,0-0.976l0.977-0.977
					c0.27-0.27,0.707-0.27,0.976,0l3.024,3.024l6.477-6.477c0.27-0.27,0.707-0.27,0.977,0l0.976,0.977
					c0.27,0.269,0.27,0.707,0,0.976l-7.941,7.942C12.482,19.208,12.045,19.208,11.775,18.938z"/>
			</g>
		</g>
	</g>
</g>
</svg>
