<?xml version="1.0" encoding="utf-8"?>
<!-- Generator: Adobe Illustrator 16.0.0, SVG Export Plug-In . SVG Version: 6.00 Build 0)  -->
<!DOCTYPE svg PUBLIC "-//W3C//DTD SVG 1.1//EN" "http://www.w3.org/Graphics/SVG/1.1/DTD/svg11.dtd">
<svg version="1.1" id="Layer_1" xmlns="http://www.w3.org/2000/svg" xmlns:xlink="http://www.w3.org/1999/xlink" x="0px" y="0px"
	 width="135.52px" height="27.98px" viewBox="0 0 135.52 27.98" enable-background="new 0 0 135.52 27.98" xml:space="preserve">
<circle fill="#037281" cx="13.99" cy="13.99" r="13.99"/>
<g>
	<path fill="#4E4E4E" d="M34.678,18.59v-1.353c0.155,0.137,0.34,0.26,0.557,0.369s0.444,0.201,0.683,0.276s0.479,0.134,0.721,0.175
		s0.464,0.062,0.669,0.062c0.706,0,1.233-0.131,1.582-0.394c0.348-0.262,0.522-0.639,0.522-1.13c0-0.265-0.058-0.494-0.174-0.69
		c-0.116-0.195-0.276-0.374-0.481-0.536c-0.205-0.161-0.447-0.316-0.728-0.465c-0.28-0.147-0.582-0.304-0.905-0.468
		c-0.341-0.173-0.66-0.349-0.956-0.525c-0.296-0.178-0.554-0.374-0.772-0.588c-0.219-0.214-0.391-0.456-0.516-0.728
		c-0.125-0.271-0.188-0.589-0.188-0.953c0-0.446,0.098-0.834,0.293-1.165s0.453-0.602,0.772-0.816
		c0.319-0.214,0.682-0.373,1.09-0.478c0.407-0.104,0.823-0.157,1.247-0.157c0.965,0,1.669,0.116,2.111,0.349v1.291
		c-0.579-0.401-1.321-0.601-2.227-0.601c-0.25,0-0.501,0.026-0.751,0.079s-0.474,0.138-0.669,0.256
		c-0.196,0.119-0.355,0.271-0.478,0.458c-0.123,0.187-0.185,0.414-0.185,0.684c0,0.25,0.047,0.466,0.14,0.648
		c0.093,0.182,0.231,0.349,0.413,0.498c0.182,0.15,0.404,0.297,0.666,0.438c0.262,0.142,0.564,0.296,0.905,0.465
		c0.351,0.173,0.683,0.355,0.998,0.546c0.314,0.191,0.589,0.403,0.826,0.636s0.425,0.489,0.564,0.771
		c0.139,0.283,0.208,0.606,0.208,0.971c0,0.482-0.094,0.892-0.283,1.226c-0.189,0.335-0.444,0.607-0.765,0.816
		c-0.321,0.21-0.691,0.361-1.11,0.454c-0.419,0.094-0.86,0.141-1.325,0.141c-0.155,0-0.346-0.013-0.574-0.038
		c-0.228-0.024-0.46-0.062-0.697-0.109c-0.237-0.047-0.461-0.106-0.673-0.177C34.975,18.755,34.806,18.677,34.678,18.59z"/>
	<path fill="#4E4E4E" d="M42.992,10.215c-0.201,0-0.372-0.068-0.513-0.205s-0.211-0.31-0.211-0.519s0.07-0.384,0.211-0.523
		C42.62,8.83,42.791,8.76,42.992,8.76c0.205,0,0.379,0.069,0.522,0.208c0.144,0.139,0.215,0.313,0.215,0.523
		c0,0.2-0.072,0.371-0.215,0.512S43.196,10.215,42.992,10.215z M43.538,18.986h-1.121v-6.995h1.121V18.986z"/>
	<path fill="#4E4E4E" d="M51.777,18.426c0,2.569-1.23,3.854-3.689,3.854c-0.865,0-1.621-0.164-2.268-0.492v-1.12
		c0.788,0.437,1.54,0.655,2.254,0.655c1.722,0,2.582-0.915,2.582-2.746v-0.765h-0.027c-0.533,0.893-1.334,1.339-2.404,1.339
		c-0.87,0-1.57-0.311-2.101-0.933c-0.531-0.622-0.796-1.456-0.796-2.504c0-1.188,0.286-2.133,0.857-2.835
		c0.571-0.701,1.354-1.052,2.346-1.052c0.943,0,1.642,0.378,2.097,1.134h0.027v-0.97h1.121V18.426z M50.656,15.823v-1.031
		c0-0.556-0.188-1.031-0.563-1.428c-0.375-0.396-0.844-0.595-1.404-0.595c-0.692,0-1.234,0.252-1.625,0.755
		c-0.392,0.504-0.588,1.208-0.588,2.114c0,0.779,0.188,1.402,0.564,1.869c0.375,0.467,0.873,0.7,1.492,0.7
		c0.629,0,1.14-0.224,1.534-0.67S50.656,16.521,50.656,15.823z"/>
	<path fill="#4E4E4E" d="M59.852,18.986H58.73v-3.989c0-1.484-0.541-2.228-1.625-2.228c-0.561,0-1.023,0.211-1.391,0.632
		c-0.367,0.422-0.55,0.953-0.55,1.596v3.989h-1.12v-6.995h1.12v1.161h0.027c0.528-0.883,1.293-1.325,2.295-1.325
		c0.765,0,1.351,0.247,1.756,0.741s0.608,1.208,0.608,2.142V18.986z"/>
	<path fill="#4E4E4E" d="M70.802,18.986h-1.121v-1.093h-0.027c-0.487,0.838-1.204,1.257-2.151,1.257
		c-0.697,0-1.242-0.185-1.636-0.554c-0.395-0.368-0.591-0.858-0.591-1.469c0-1.307,0.77-2.067,2.309-2.281l2.097-0.294
		c0-1.188-0.48-1.783-1.441-1.783c-0.842,0-1.603,0.287-2.281,0.861v-1.147c0.688-0.438,1.48-0.656,2.377-0.656
		c1.645,0,2.467,0.87,2.467,2.609V18.986z M69.681,15.448l-1.687,0.231c-0.52,0.073-0.911,0.202-1.176,0.387
		c-0.264,0.184-0.396,0.511-0.396,0.979c0,0.342,0.121,0.621,0.365,0.837c0.243,0.217,0.568,0.325,0.974,0.325
		c0.556,0,1.015-0.195,1.376-0.585c0.362-0.389,0.543-0.882,0.543-1.479V15.448z"/>
	<path fill="#4E4E4E" d="M78.719,18.986h-1.12v-3.989c0-1.484-0.542-2.228-1.626-2.228c-0.561,0-1.023,0.211-1.391,0.632
		c-0.366,0.422-0.55,0.953-0.55,1.596v3.989h-1.12v-6.995h1.12v1.161h0.027c0.528-0.883,1.294-1.325,2.296-1.325
		c0.765,0,1.35,0.247,1.755,0.741s0.608,1.208,0.608,2.142V18.986z"/>
	<path fill="#4E4E4E" d="M86.8,18.986h-1.12v-1.188h-0.027c-0.52,0.901-1.321,1.353-2.405,1.353c-0.879,0-1.581-0.313-2.107-0.939
		c-0.525-0.626-0.788-1.479-0.788-2.559c0-1.156,0.291-2.083,0.874-2.78c0.583-0.696,1.359-1.045,2.329-1.045
		c0.961,0,1.66,0.378,2.098,1.134h0.027V8.63h1.12V18.986z M85.68,15.823v-1.031c0-0.564-0.188-1.043-0.561-1.435
		s-0.847-0.588-1.421-0.588c-0.683,0-1.221,0.251-1.612,0.752s-0.587,1.193-0.587,2.076c0,0.807,0.188,1.443,0.563,1.91
		s0.88,0.7,1.513,0.7c0.624,0,1.131-0.226,1.521-0.677C85.484,17.08,85.68,16.511,85.68,15.823z"/>
	<path fill="#4E4E4E" d="M92.593,18.59v-1.353c0.155,0.137,0.341,0.26,0.558,0.369c0.216,0.109,0.443,0.201,0.683,0.276
		s0.479,0.134,0.721,0.175s0.465,0.062,0.67,0.062c0.705,0,1.232-0.131,1.581-0.394c0.349-0.262,0.522-0.639,0.522-1.13
		c0-0.265-0.058-0.494-0.174-0.69c-0.116-0.195-0.277-0.374-0.482-0.536c-0.204-0.161-0.447-0.316-0.727-0.465
		c-0.28-0.147-0.582-0.304-0.905-0.468c-0.342-0.173-0.661-0.349-0.957-0.525c-0.296-0.178-0.553-0.374-0.771-0.588
		s-0.391-0.456-0.516-0.728c-0.126-0.271-0.188-0.589-0.188-0.953c0-0.446,0.099-0.834,0.294-1.165
		c0.196-0.33,0.453-0.602,0.772-0.816c0.318-0.214,0.682-0.373,1.089-0.478c0.408-0.104,0.823-0.157,1.247-0.157
		c0.966,0,1.669,0.116,2.11,0.349v1.291c-0.578-0.401-1.32-0.601-2.227-0.601c-0.25,0-0.501,0.026-0.751,0.079
		c-0.251,0.052-0.474,0.138-0.67,0.256c-0.195,0.119-0.355,0.271-0.479,0.458c-0.123,0.187-0.184,0.414-0.184,0.684
		c0,0.25,0.046,0.466,0.14,0.648c0.093,0.182,0.231,0.349,0.413,0.498c0.183,0.15,0.404,0.297,0.666,0.438
		c0.262,0.142,0.563,0.296,0.905,0.465c0.351,0.173,0.684,0.355,0.997,0.546c0.314,0.191,0.59,0.403,0.827,0.636
		c0.236,0.232,0.425,0.489,0.563,0.771c0.139,0.283,0.208,0.606,0.208,0.971c0,0.482-0.095,0.892-0.283,1.226
		c-0.189,0.335-0.444,0.607-0.766,0.816c-0.32,0.21-0.69,0.361-1.109,0.454c-0.419,0.094-0.861,0.141-1.325,0.141
		c-0.155,0-0.347-0.013-0.574-0.038c-0.228-0.024-0.46-0.062-0.696-0.109c-0.237-0.047-0.462-0.106-0.673-0.177
		C92.891,18.755,92.721,18.677,92.593,18.59z"/>
	<path fill="#4E4E4E" d="M105.988,18.986h-1.12V17.88h-0.027c-0.465,0.847-1.185,1.271-2.158,1.271
		c-1.667,0-2.501-0.993-2.501-2.979v-4.181h1.114v4.003c0,1.476,0.564,2.214,1.693,2.214c0.547,0,0.996-0.202,1.35-0.605
		c0.353-0.402,0.529-0.93,0.529-1.581v-4.03h1.12V18.986z"/>
	<path fill="#4E4E4E" d="M109.397,17.976h-0.027v1.011h-1.12V8.63h1.12v4.59h0.027c0.552-0.929,1.357-1.394,2.419-1.394
		c0.896,0,1.6,0.313,2.107,0.939s0.762,1.465,0.762,2.518c0,1.17-0.285,2.107-0.854,2.811c-0.569,0.704-1.348,1.056-2.336,1.056
		C110.57,19.15,109.871,18.759,109.397,17.976z M109.37,15.154v0.977c0,0.578,0.188,1.069,0.563,1.472
		c0.376,0.403,0.854,0.605,1.432,0.605c0.679,0,1.21-0.26,1.595-0.779s0.577-1.241,0.577-2.165c0-0.779-0.18-1.39-0.539-1.831
		c-0.36-0.441-0.848-0.663-1.462-0.663c-0.651,0-1.175,0.227-1.571,0.68C109.568,13.903,109.37,14.471,109.37,15.154z"/>
	<path fill="#4E4E4E" d="M126.407,18.986h-1.12V14.97c0-0.774-0.12-1.334-0.358-1.681c-0.239-0.346-0.642-0.52-1.206-0.52
		c-0.479,0-0.885,0.219-1.22,0.656c-0.334,0.438-0.502,0.961-0.502,1.571v3.989h-1.12v-4.153c0-1.375-0.53-2.063-1.592-2.063
		c-0.491,0-0.897,0.206-1.216,0.618c-0.318,0.413-0.479,0.949-0.479,1.609v3.989h-1.12v-6.995h1.12v1.106h0.027
		c0.497-0.847,1.221-1.271,2.173-1.271c0.478,0,0.895,0.134,1.25,0.399c0.355,0.267,0.599,0.616,0.73,1.049
		c0.52-0.966,1.294-1.448,2.323-1.448c1.539,0,2.309,0.949,2.309,2.849V18.986z"/>
	<path fill="#4E4E4E" d="M129.099,10.215c-0.2,0-0.371-0.068-0.513-0.205c-0.141-0.137-0.212-0.31-0.212-0.519
		s0.071-0.384,0.212-0.523c0.142-0.139,0.313-0.208,0.513-0.208c0.205,0,0.379,0.069,0.522,0.208
		c0.144,0.139,0.215,0.313,0.215,0.523c0,0.2-0.071,0.371-0.215,0.512S129.304,10.215,129.099,10.215z M129.645,18.986h-1.12v-6.995
		h1.12V18.986z"/>
	<path fill="#4E4E4E" d="M135.158,18.918c-0.265,0.146-0.612,0.219-1.045,0.219c-1.226,0-1.838-0.684-1.838-2.05v-4.14h-1.202
		v-0.956h1.202v-1.708l1.12-0.362v2.07h1.763v0.956h-1.763v3.941c0,0.47,0.08,0.805,0.239,1.005s0.424,0.301,0.792,0.301
		c0.282,0,0.526-0.078,0.731-0.232V18.918z"/>
</g>
<path opacity="0.8745" fill="#FFFDFB" d="M18.354,19.117h-2.29c-0.181,0-0.327-0.146-0.327-0.327v-1.091
	c0-0.18,0.146-0.327,0.327-0.327h2.29c0.483,0,0.873-0.39,0.873-0.873v-5.236c0-0.483-0.39-0.873-0.873-0.873h-2.29
	c-0.181,0-0.327-0.147-0.327-0.328V8.971c0-0.18,0.146-0.327,0.327-0.327h2.29c1.446,0,2.618,1.173,2.618,2.619v5.236
	C20.972,17.945,19.8,19.117,18.354,19.117z M17.072,13.636L12.49,9.053c-0.409-0.409-1.118-0.122-1.118,0.464v2.619H7.663
	c-0.362,0-0.654,0.292-0.654,0.655v2.617c0,0.363,0.292,0.654,0.654,0.654h3.709v2.619c0,0.586,0.709,0.872,1.118,0.463l4.582-4.582
	C17.326,14.307,17.326,13.893,17.072,13.636z"/>
<g>
</g>
<g>
</g>
<g>
</g>
<g>
</g>
<g>
</g>
<g>
</g>
</svg>
