<?xml version="1.0" encoding="utf-8"?>
<!-- Generator: Adobe Illustrator 16.0.0, SVG Export Plug-In . SVG Version: 6.00 Build 0)  -->
<!DOCTYPE svg PUBLIC "-//W3C//DTD SVG 1.1//EN" "http://www.w3.org/Graphics/SVG/1.1/DTD/svg11.dtd">
<svg version="1.1" id="Layer_1" focusable="false" xmlns="http://www.w3.org/2000/svg" xmlns:xlink="http://www.w3.org/1999/xlink"
	 x="0px" y="0px" width="14px" height="10.5px" viewBox="192.176 397.5 14 10.5" enable-background="new 192.176 397.5 14 10.5"
	 xml:space="preserve">
<path fill="#037281" d="M205.738,406.25h-11.813v-8.313c0-0.241-0.196-0.438-0.438-0.438h-0.875c-0.242,0-0.438,0.196-0.438,0.438
	v9.188c0,0.483,0.392,0.875,0.875,0.875h12.688c0.242,0,0.438-0.195,0.438-0.438v-0.875
	C206.176,406.445,205.98,406.25,205.738,406.25z"/>
<path fill="#037281" d="M204.863,398.375h-3.228c-0.585,0-0.877,0.707-0.464,1.12l0.885,0.887l-2.006,2.006l-2.006-2.006
	c-0.342-0.342-0.896-0.342-1.238,0l-1.878,1.877c-0.171,0.172-0.171,0.448,0,0.62l0.618,0.618c0.171,0.171,0.448,0.171,0.619,0
	l1.259-1.26l2.006,2.006c0.342,0.342,0.896,0.342,1.238,0l2.625-2.625l0.886,0.886c0.414,0.414,1.121,0.121,1.121-0.464v-3.228
	C205.301,398.571,205.105,398.375,204.863,398.375z"/>
</svg>
