<?xml version="1.0" encoding="utf-8"?>
<!-- Generator: Adobe Illustrator 16.0.0, SVG Export Plug-In . SVG Version: 6.00 Build 0)  -->
<!DOCTYPE svg PUBLIC "-//W3C//DTD SVG 1.1//EN" "http://www.w3.org/Graphics/SVG/1.1/DTD/svg11.dtd">
<svg version="1.1" id="Layer_1" xmlns="http://www.w3.org/2000/svg" xmlns:xlink="http://www.w3.org/1999/xlink" x="0px" y="0px"
	 width="108.823px" height="27.98px" viewBox="0 0 108.823 27.98" enable-background="new 0 0 108.823 27.98" xml:space="preserve">
<circle fill="#037281" cx="13.99" cy="13.99" r="13.99"/>
<path opacity="0.8745" fill="#FFFDFB" d="M19.236,12.679h-3.935V8.744c0-0.483-0.392-0.875-0.875-0.875h-0.874
	c-0.483,0-0.875,0.392-0.875,0.875v3.935H8.744c-0.483,0-0.875,0.392-0.875,0.874v0.875c0,0.483,0.392,0.874,0.875,0.874h3.935
	v3.935c0,0.484,0.392,0.875,0.875,0.875h0.874c0.483,0,0.875-0.391,0.875-0.875v-3.935h3.935c0.483,0,0.875-0.391,0.875-0.874
	v-0.875C20.111,13.07,19.719,12.679,19.236,12.679z"/>
<g>
	<path fill="#4E4E4E" d="M42.718,18.986h-1.271L40.41,16.24h-4.153l-0.977,2.746h-1.277l3.757-9.796h1.189L42.718,18.986z
		 M40.034,15.209l-1.537-4.174c-0.05-0.136-0.1-0.355-0.15-0.656h-0.027c-0.046,0.278-0.098,0.497-0.157,0.656l-1.523,4.174H40.034z
		"/>
	<path fill="#4E4E4E" d="M49.98,18.986h-1.121v-1.188h-0.027c-0.519,0.901-1.32,1.353-2.404,1.353c-0.879,0-1.582-0.313-2.107-0.939
		s-0.789-1.479-0.789-2.559c0-1.156,0.292-2.083,0.875-2.78c0.583-0.696,1.359-1.045,2.329-1.045c0.961,0,1.66,0.378,2.097,1.134
		h0.027V8.63h1.121V18.986z M48.859,15.823v-1.031c0-0.564-0.187-1.043-0.56-1.435s-0.847-0.588-1.421-0.588
		c-0.683,0-1.22,0.251-1.612,0.752c-0.392,0.501-0.588,1.193-0.588,2.076c0,0.807,0.188,1.443,0.564,1.91
		c0.375,0.467,0.88,0.7,1.513,0.7c0.624,0,1.131-0.226,1.52-0.677C48.665,17.08,48.859,16.511,48.859,15.823z"/>
	<path fill="#4E4E4E" d="M58.218,18.986h-1.121v-1.188H57.07c-0.519,0.901-1.32,1.353-2.404,1.353c-0.879,0-1.582-0.313-2.107-0.939
		s-0.789-1.479-0.789-2.559c0-1.156,0.292-2.083,0.875-2.78c0.583-0.696,1.359-1.045,2.329-1.045c0.961,0,1.66,0.378,2.097,1.134
		h0.027V8.63h1.121V18.986z M57.098,15.823v-1.031c0-0.564-0.187-1.043-0.56-1.435s-0.847-0.588-1.421-0.588
		c-0.683,0-1.22,0.251-1.612,0.752c-0.392,0.501-0.588,1.193-0.588,2.076c0,0.807,0.188,1.443,0.564,1.91
		c0.375,0.467,0.88,0.7,1.513,0.7c0.624,0,1.131-0.226,1.52-0.677C56.903,17.08,57.098,16.511,57.098,15.823z"/>
	<path fill="#4E4E4E" d="M69.087,18.665c-0.538,0.323-1.175,0.485-1.913,0.485c-0.997,0-1.802-0.324-2.415-0.974
		c-0.612-0.648-0.918-1.49-0.918-2.524c0-1.151,0.33-2.077,0.99-2.776s1.541-1.049,2.644-1.049c0.614,0,1.156,0.114,1.626,0.342
		v1.147c-0.52-0.364-1.075-0.547-1.667-0.547c-0.715,0-1.302,0.257-1.759,0.769c-0.458,0.513-0.687,1.186-0.687,2.019
		c0,0.82,0.215,1.467,0.646,1.94c0.43,0.474,1.008,0.711,1.731,0.711c0.61,0,1.184-0.203,1.722-0.608V18.665z"/>
	<path fill="#4E4E4E" d="M73.704,19.15c-1.034,0-1.859-0.327-2.477-0.98s-0.925-1.52-0.925-2.6c0-1.175,0.32-2.092,0.963-2.753
		c0.642-0.66,1.51-0.99,2.603-0.99c1.043,0,1.856,0.321,2.442,0.963c0.585,0.643,0.878,1.533,0.878,2.672
		c0,1.115-0.315,2.009-0.946,2.681S74.766,19.15,73.704,19.15z M73.786,12.77c-0.72,0-1.289,0.245-1.708,0.734
		c-0.419,0.49-0.628,1.165-0.628,2.025c0,0.829,0.212,1.482,0.635,1.961c0.424,0.479,0.991,0.718,1.701,0.718
		c0.725,0,1.281-0.235,1.67-0.704c0.39-0.469,0.584-1.136,0.584-2.002c0-0.874-0.194-1.548-0.584-2.021
		C75.067,13.007,74.511,12.77,73.786,12.77z"/>
	<path fill="#4E4E4E" d="M84.785,18.986h-1.12v-3.989c0-1.484-0.542-2.228-1.626-2.228c-0.561,0-1.023,0.211-1.391,0.632
		c-0.366,0.422-0.55,0.953-0.55,1.596v3.989h-1.12v-6.995h1.12v1.161h0.027c0.528-0.883,1.294-1.325,2.296-1.325
		c0.765,0,1.35,0.247,1.755,0.741s0.608,1.208,0.608,2.142V18.986z"/>
	<path fill="#4E4E4E" d="M90.141,18.918c-0.265,0.146-0.612,0.219-1.045,0.219c-1.226,0-1.838-0.684-1.838-2.05v-4.14h-1.202v-0.956
		h1.202v-1.708l1.12-0.362v2.07h1.763v0.956h-1.763v3.941c0,0.47,0.08,0.805,0.239,1.005s0.424,0.301,0.792,0.301
		c0.282,0,0.526-0.078,0.731-0.232V18.918z"/>
	<path fill="#4E4E4E" d="M96.644,18.986h-1.121v-1.093h-0.027c-0.487,0.838-1.204,1.257-2.151,1.257
		c-0.697,0-1.242-0.185-1.636-0.554c-0.395-0.368-0.591-0.858-0.591-1.469c0-1.307,0.77-2.067,2.309-2.281l2.097-0.294
		c0-1.188-0.48-1.783-1.441-1.783c-0.842,0-1.603,0.287-2.281,0.861v-1.147c0.688-0.438,1.48-0.656,2.377-0.656
		c1.645,0,2.467,0.87,2.467,2.609V18.986z M95.522,15.448l-1.687,0.231c-0.52,0.073-0.911,0.202-1.176,0.387
		c-0.264,0.184-0.396,0.511-0.396,0.979c0,0.342,0.121,0.621,0.365,0.837c0.243,0.217,0.568,0.325,0.974,0.325
		c0.556,0,1.015-0.195,1.376-0.585c0.362-0.389,0.543-0.882,0.543-1.479V15.448z"/>
	<path fill="#4E4E4E" d="M103.522,18.665c-0.538,0.323-1.175,0.485-1.913,0.485c-0.997,0-1.802-0.324-2.415-0.974
		c-0.612-0.648-0.918-1.49-0.918-2.524c0-1.151,0.33-2.077,0.99-2.776s1.541-1.049,2.644-1.049c0.614,0,1.156,0.114,1.626,0.342
		v1.147c-0.52-0.364-1.075-0.547-1.667-0.547c-0.715,0-1.302,0.257-1.759,0.769c-0.458,0.513-0.687,1.186-0.687,2.019
		c0,0.82,0.215,1.467,0.646,1.94c0.43,0.474,1.008,0.711,1.731,0.711c0.61,0,1.184-0.203,1.722-0.608V18.665z"/>
	<path fill="#4E4E4E" d="M108.462,18.918c-0.265,0.146-0.612,0.219-1.045,0.219c-1.226,0-1.838-0.684-1.838-2.05v-4.14h-1.202
		v-0.956h1.202v-1.708l1.12-0.362v2.07h1.763v0.956h-1.763v3.941c0,0.47,0.08,0.805,0.239,1.005s0.424,0.301,0.792,0.301
		c0.282,0,0.526-0.078,0.731-0.232V18.918z"/>
</g>
<g>
</g>
<g>
</g>
<g>
</g>
<g>
</g>
<g>
</g>
<g>
</g>
</svg>
