<?xml version="1.0" encoding="utf-8"?>
<!-- Generator: Adobe Illustrator 16.0.0, SVG Export Plug-In . SVG Version: 6.00 Build 0)  -->
<!DOCTYPE svg PUBLIC "-//W3C//DTD SVG 1.1//EN" "http://www.w3.org/Graphics/SVG/1.1/DTD/svg11.dtd">
<svg version="1.1" id="Layer_1" xmlns="http://www.w3.org/2000/svg" xmlns:xlink="http://www.w3.org/1999/xlink" x="0px" y="0px"
	 width="143.15px" height="27.98px" viewBox="0 0 143.15 27.98" enable-background="new 0 0 143.15 27.98" xml:space="preserve">
<circle fill="#037281" cx="13.99" cy="13.99" r="13.99"/>
<path opacity="0.8745" fill="#FFFDFB" d="M19.236,12.679h-3.935V8.744c0-0.483-0.392-0.875-0.875-0.875h-0.874
	c-0.483,0-0.875,0.392-0.875,0.875v3.935H8.744c-0.483,0-0.875,0.392-0.875,0.874v0.875c0,0.483,0.392,0.874,0.875,0.874h3.935
	v3.935c0,0.484,0.392,0.875,0.875,0.875h0.874c0.483,0,0.875-0.391,0.875-0.875v-3.935h3.935c0.483,0,0.875-0.391,0.875-0.874
	v-0.875C20.111,13.07,19.719,12.679,19.236,12.679z"/>
<g>
	<path fill="#4E4E4E" d="M34.678,18.59v-1.353c0.155,0.137,0.34,0.26,0.557,0.369s0.444,0.201,0.683,0.276s0.479,0.134,0.721,0.175
		s0.464,0.062,0.669,0.062c0.706,0,1.233-0.131,1.582-0.394c0.348-0.262,0.522-0.639,0.522-1.13c0-0.265-0.058-0.494-0.174-0.69
		c-0.116-0.195-0.276-0.374-0.481-0.536c-0.205-0.161-0.447-0.316-0.728-0.465c-0.28-0.147-0.582-0.304-0.905-0.468
		c-0.341-0.173-0.66-0.349-0.956-0.525c-0.296-0.178-0.554-0.374-0.772-0.588c-0.219-0.214-0.391-0.456-0.516-0.728
		c-0.125-0.271-0.188-0.589-0.188-0.953c0-0.446,0.098-0.834,0.293-1.165s0.453-0.602,0.772-0.816
		c0.319-0.214,0.682-0.373,1.09-0.478c0.407-0.104,0.823-0.157,1.247-0.157c0.965,0,1.669,0.116,2.111,0.349v1.291
		c-0.579-0.401-1.321-0.601-2.227-0.601c-0.25,0-0.501,0.026-0.751,0.079s-0.474,0.138-0.669,0.256
		c-0.196,0.119-0.355,0.271-0.478,0.458c-0.123,0.187-0.185,0.414-0.185,0.684c0,0.25,0.047,0.466,0.14,0.648
		c0.093,0.182,0.231,0.349,0.413,0.498c0.182,0.15,0.404,0.297,0.666,0.438c0.262,0.142,0.564,0.296,0.905,0.465
		c0.351,0.173,0.683,0.355,0.998,0.546c0.314,0.191,0.589,0.403,0.826,0.636s0.425,0.489,0.564,0.771
		c0.139,0.283,0.208,0.606,0.208,0.971c0,0.482-0.094,0.892-0.283,1.226c-0.189,0.335-0.444,0.607-0.765,0.816
		c-0.321,0.21-0.691,0.361-1.11,0.454c-0.419,0.094-0.86,0.141-1.325,0.141c-0.155,0-0.346-0.013-0.574-0.038
		c-0.228-0.024-0.46-0.062-0.697-0.109c-0.237-0.047-0.461-0.106-0.673-0.177C34.975,18.755,34.806,18.677,34.678,18.59z"/>
	<path fill="#4E4E4E" d="M48.074,18.986h-1.12V17.88h-0.027c-0.464,0.847-1.184,1.271-2.159,1.271c-1.667,0-2.5-0.993-2.5-2.979
		v-4.181h1.113v4.003c0,1.476,0.564,2.214,1.694,2.214c0.546,0,0.996-0.202,1.349-0.605c0.353-0.402,0.529-0.93,0.529-1.581v-4.03
		h1.12V18.986z"/>
	<path fill="#4E4E4E" d="M51.483,17.976h-0.027v1.011h-1.121V8.63h1.121v4.59h0.027c0.551-0.929,1.357-1.394,2.418-1.394
		c0.897,0,1.6,0.313,2.107,0.939s0.762,1.465,0.762,2.518c0,1.17-0.285,2.107-0.854,2.811c-0.569,0.704-1.348,1.056-2.336,1.056
		C52.655,19.15,51.957,18.759,51.483,17.976z M51.456,15.154v0.977c0,0.578,0.188,1.069,0.563,1.472
		c0.375,0.403,0.853,0.605,1.431,0.605c0.679,0,1.21-0.26,1.595-0.779c0.385-0.52,0.577-1.241,0.577-2.165
		c0-0.779-0.18-1.39-0.54-1.831c-0.36-0.441-0.847-0.663-1.462-0.663c-0.651,0-1.175,0.227-1.571,0.68
		C51.653,13.903,51.456,14.471,51.456,15.154z"/>
	<path fill="#4E4E4E" d="M68.492,18.986h-1.12V14.97c0-0.774-0.12-1.334-0.358-1.681c-0.239-0.346-0.642-0.52-1.206-0.52
		c-0.479,0-0.885,0.219-1.22,0.656c-0.334,0.438-0.502,0.961-0.502,1.571v3.989h-1.12v-4.153c0-1.375-0.531-2.063-1.592-2.063
		c-0.492,0-0.897,0.206-1.216,0.618c-0.319,0.413-0.478,0.949-0.478,1.609v3.989H58.56v-6.995h1.121v1.106h0.027
		c0.496-0.847,1.22-1.271,2.172-1.271c0.478,0,0.895,0.134,1.25,0.399c0.355,0.267,0.599,0.616,0.73,1.049
		c0.52-0.966,1.294-1.448,2.323-1.448c1.539,0,2.309,0.949,2.309,2.849V18.986z"/>
	<path fill="#4E4E4E" d="M71.185,10.215c-0.2,0-0.371-0.068-0.513-0.205c-0.141-0.137-0.212-0.31-0.212-0.519
		s0.071-0.384,0.212-0.523c0.142-0.139,0.313-0.208,0.513-0.208c0.205,0,0.379,0.069,0.522,0.208
		c0.144,0.139,0.215,0.313,0.215,0.523c0,0.2-0.071,0.371-0.215,0.512S71.39,10.215,71.185,10.215z M71.73,18.986h-1.12v-6.995h1.12
		V18.986z"/>
	<path fill="#4E4E4E" d="M77.243,18.918c-0.265,0.146-0.612,0.219-1.045,0.219c-1.226,0-1.838-0.684-1.838-2.05v-4.14h-1.202v-0.956
		h1.202v-1.708l1.12-0.362v2.07h1.763v0.956H75.48v3.941c0,0.47,0.08,0.805,0.239,1.005s0.424,0.301,0.792,0.301
		c0.282,0,0.526-0.078,0.731-0.232V18.918z"/>
	<path fill="#4E4E4E" d="M87.34,18.665c-0.538,0.323-1.175,0.485-1.913,0.485c-0.997,0-1.802-0.324-2.415-0.974
		c-0.612-0.648-0.918-1.49-0.918-2.524c0-1.151,0.33-2.077,0.99-2.776s1.541-1.049,2.644-1.049c0.614,0,1.156,0.114,1.626,0.342
		v1.147c-0.52-0.364-1.075-0.547-1.667-0.547c-0.715,0-1.302,0.257-1.759,0.769c-0.458,0.513-0.687,1.186-0.687,2.019
		c0,0.82,0.215,1.467,0.646,1.94c0.43,0.474,1.008,0.711,1.731,0.711c0.61,0,1.184-0.203,1.722-0.608V18.665z"/>
	<path fill="#4E4E4E" d="M94.041,18.986H92.92v-1.093h-0.027c-0.487,0.838-1.204,1.257-2.151,1.257
		c-0.697,0-1.242-0.185-1.636-0.554c-0.395-0.368-0.591-0.858-0.591-1.469c0-1.307,0.77-2.067,2.309-2.281l2.097-0.294
		c0-1.188-0.48-1.783-1.441-1.783c-0.842,0-1.603,0.287-2.281,0.861v-1.147c0.688-0.438,1.48-0.656,2.377-0.656
		c1.645,0,2.467,0.87,2.467,2.609V18.986z M92.92,15.448l-1.687,0.231c-0.52,0.073-0.911,0.202-1.176,0.387
		c-0.264,0.184-0.396,0.511-0.396,0.979c0,0.342,0.121,0.621,0.365,0.837c0.243,0.217,0.568,0.325,0.974,0.325
		c0.556,0,1.015-0.195,1.376-0.585c0.362-0.389,0.543-0.882,0.543-1.479V15.448z"/>
	<path fill="#4E4E4E" d="M101.958,18.986h-1.12v-3.989c0-1.484-0.542-2.228-1.626-2.228c-0.561,0-1.023,0.211-1.391,0.632
		c-0.366,0.422-0.55,0.953-0.55,1.596v3.989h-1.12v-6.995h1.12v1.161h0.027c0.528-0.883,1.294-1.325,2.296-1.325
		c0.765,0,1.35,0.247,1.755,0.741s0.608,1.208,0.608,2.142V18.986z"/>
	<path fill="#4E4E4E" d="M110.04,18.986h-1.12v-1.188h-0.027c-0.52,0.901-1.321,1.353-2.405,1.353c-0.879,0-1.581-0.313-2.107-0.939
		c-0.525-0.626-0.788-1.479-0.788-2.559c0-1.156,0.291-2.083,0.874-2.78c0.583-0.696,1.359-1.045,2.329-1.045
		c0.961,0,1.66,0.378,2.098,1.134h0.027V8.63h1.12V18.986z M108.92,15.823v-1.031c0-0.564-0.188-1.043-0.561-1.435
		s-0.847-0.588-1.421-0.588c-0.683,0-1.221,0.251-1.612,0.752s-0.587,1.193-0.587,2.076c0,0.807,0.188,1.443,0.563,1.91
		s0.88,0.7,1.513,0.7c0.624,0,1.131-0.226,1.521-0.677C108.725,17.08,108.92,16.511,108.92,15.823z"/>
	<path fill="#4E4E4E" d="M112.882,10.215c-0.2,0-0.371-0.068-0.513-0.205c-0.141-0.137-0.212-0.31-0.212-0.519
		s0.071-0.384,0.212-0.523c0.142-0.139,0.313-0.208,0.513-0.208c0.205,0,0.379,0.069,0.522,0.208
		c0.144,0.139,0.215,0.313,0.215,0.523c0,0.2-0.071,0.371-0.215,0.512S113.087,10.215,112.882,10.215z M113.428,18.986h-1.12v-6.995
		h1.12V18.986z"/>
	<path fill="#4E4E4E" d="M121.666,18.986h-1.12v-1.188h-0.027c-0.52,0.901-1.321,1.353-2.405,1.353
		c-0.879,0-1.581-0.313-2.107-0.939c-0.525-0.626-0.788-1.479-0.788-2.559c0-1.156,0.291-2.083,0.874-2.78
		c0.583-0.696,1.359-1.045,2.329-1.045c0.961,0,1.66,0.378,2.098,1.134h0.027V8.63h1.12V18.986z M120.546,15.823v-1.031
		c0-0.564-0.188-1.043-0.561-1.435s-0.847-0.588-1.421-0.588c-0.683,0-1.221,0.251-1.612,0.752s-0.587,1.193-0.587,2.076
		c0,0.807,0.188,1.443,0.563,1.91s0.88,0.7,1.513,0.7c0.624,0,1.131-0.226,1.521-0.677C120.351,17.08,120.546,16.511,120.546,15.823
		z"/>
	<path fill="#4E4E4E" d="M128.941,18.986h-1.121v-1.093h-0.027c-0.487,0.838-1.204,1.257-2.151,1.257
		c-0.697,0-1.242-0.185-1.636-0.554c-0.395-0.368-0.591-0.858-0.591-1.469c0-1.307,0.77-2.067,2.309-2.281l2.097-0.294
		c0-1.188-0.48-1.783-1.441-1.783c-0.842,0-1.603,0.287-2.281,0.861v-1.147c0.688-0.438,1.48-0.656,2.377-0.656
		c1.645,0,2.467,0.87,2.467,2.609V18.986z M127.82,15.448l-1.687,0.231c-0.52,0.073-0.911,0.202-1.176,0.387
		c-0.264,0.184-0.396,0.511-0.396,0.979c0,0.342,0.121,0.621,0.365,0.837c0.243,0.217,0.568,0.325,0.974,0.325
		c0.556,0,1.015-0.195,1.376-0.585c0.362-0.389,0.543-0.882,0.543-1.479V15.448z"/>
	<path fill="#4E4E4E" d="M135.82,18.665c-0.538,0.323-1.175,0.485-1.913,0.485c-0.997,0-1.802-0.324-2.415-0.974
		c-0.612-0.648-0.918-1.49-0.918-2.524c0-1.151,0.33-2.077,0.99-2.776s1.541-1.049,2.644-1.049c0.614,0,1.156,0.114,1.626,0.342
		v1.147c-0.52-0.364-1.075-0.547-1.667-0.547c-0.715,0-1.302,0.257-1.759,0.769c-0.458,0.513-0.687,1.186-0.687,2.019
		c0,0.82,0.215,1.467,0.646,1.94c0.43,0.474,1.008,0.711,1.731,0.711c0.61,0,1.184-0.203,1.722-0.608V18.665z"/>
	<path fill="#4E4E4E" d="M143.082,11.991l-3.217,8.115c-0.574,1.448-1.381,2.173-2.419,2.173c-0.291,0-0.535-0.03-0.73-0.089v-1.005
		c0.241,0.082,0.462,0.123,0.662,0.123c0.564,0,0.988-0.337,1.271-1.011l0.561-1.325l-2.732-6.981h1.243l1.893,5.383
		c0.022,0.068,0.07,0.246,0.144,0.533h0.041c0.022-0.109,0.068-0.282,0.136-0.52l1.988-5.396H143.082z"/>
</g>
<g>
</g>
<g>
</g>
<g>
</g>
<g>
</g>
<g>
</g>
<g>
</g>
</svg>
