<?xml version="1.0" encoding="utf-8"?>
<!-- Generator: Adobe Illustrator 16.0.0, SVG Export Plug-In . SVG Version: 6.00 Build 0)  -->
<!DOCTYPE svg PUBLIC "-//W3C//DTD SVG 1.1//EN" "http://www.w3.org/Graphics/SVG/1.1/DTD/svg11.dtd">
<svg version="1.1" id="Layer_1" xmlns="http://www.w3.org/2000/svg" xmlns:xlink="http://www.w3.org/1999/xlink" x="0px" y="0px"
	 width="77.605px" height="27.98px" viewBox="0 0 77.605 27.98" enable-background="new 0 0 77.605 27.98" xml:space="preserve">
<path fill="#037281" d="M27.98,13.99c0,7.727-6.264,13.99-13.99,13.99C6.263,27.98,0,21.717,0,13.99C0,6.263,6.263,0,13.99,0
	C21.716,0,27.98,6.263,27.98,13.99"/>
<g>
	<path fill="#4E4E4E" d="M34.677,18.59v-1.353c0.155,0.137,0.341,0.26,0.558,0.369c0.216,0.109,0.443,0.201,0.683,0.276
		s0.479,0.134,0.721,0.175s0.465,0.062,0.67,0.062c0.705,0,1.232-0.131,1.581-0.394c0.349-0.262,0.522-0.639,0.522-1.13
		c0-0.265-0.058-0.494-0.174-0.69c-0.116-0.195-0.277-0.374-0.482-0.536c-0.204-0.161-0.447-0.316-0.727-0.464
		c-0.28-0.148-0.582-0.304-0.905-0.468c-0.342-0.173-0.661-0.349-0.957-0.526c-0.296-0.177-0.553-0.373-0.771-0.587
		c-0.219-0.214-0.391-0.457-0.516-0.728c-0.126-0.271-0.188-0.588-0.188-0.953c0-0.446,0.099-0.834,0.294-1.165
		c0.196-0.33,0.453-0.602,0.772-0.816c0.318-0.214,0.682-0.373,1.089-0.478c0.408-0.104,0.823-0.157,1.247-0.157
		c0.966,0,1.669,0.116,2.11,0.349v1.291c-0.578-0.401-1.32-0.601-2.227-0.601c-0.25,0-0.501,0.026-0.751,0.079
		c-0.251,0.052-0.474,0.138-0.67,0.256c-0.196,0.119-0.355,0.271-0.479,0.458c-0.123,0.187-0.184,0.414-0.184,0.683
		c0,0.25,0.046,0.467,0.14,0.649c0.093,0.182,0.231,0.348,0.413,0.499c0.183,0.15,0.404,0.296,0.666,0.437
		c0.262,0.142,0.563,0.296,0.905,0.465c0.351,0.173,0.684,0.355,0.997,0.546c0.314,0.191,0.59,0.403,0.827,0.635
		c0.236,0.232,0.424,0.489,0.563,0.771c0.139,0.283,0.208,0.606,0.208,0.971c0,0.482-0.095,0.892-0.283,1.226
		c-0.189,0.335-0.444,0.607-0.766,0.816c-0.32,0.21-0.69,0.361-1.109,0.454c-0.419,0.094-0.861,0.141-1.325,0.141
		c-0.155,0-0.347-0.013-0.574-0.038c-0.228-0.024-0.46-0.062-0.696-0.109c-0.237-0.047-0.462-0.106-0.673-0.177
		C34.975,18.755,34.805,18.677,34.677,18.59z"/>
	<path fill="#4E4E4E" d="M48.074,18.986h-1.12V17.88h-0.027c-0.465,0.847-1.185,1.271-2.158,1.271c-1.667,0-2.501-0.993-2.501-2.979
		v-4.181h1.113v4.003c0,1.476,0.565,2.214,1.694,2.214c0.547,0,0.996-0.202,1.35-0.605c0.353-0.402,0.529-0.93,0.529-1.581v-4.03
		h1.12V18.986z"/>
	<path fill="#4E4E4E" d="M51.482,17.976h-0.027v1.011h-1.12V8.63h1.12v4.59h0.027c0.552-0.929,1.357-1.394,2.419-1.394
		c0.896,0,1.6,0.313,2.107,0.939s0.762,1.465,0.762,2.518c0,1.17-0.285,2.107-0.854,2.811c-0.569,0.704-1.348,1.056-2.336,1.056
		C52.655,19.15,51.956,18.759,51.482,17.976z M51.455,15.154v0.977c0,0.578,0.188,1.069,0.563,1.472
		c0.376,0.403,0.854,0.605,1.432,0.605c0.679,0,1.21-0.26,1.595-0.779s0.577-1.241,0.577-2.165c0-0.779-0.18-1.389-0.539-1.831
		c-0.36-0.442-0.848-0.663-1.462-0.663c-0.651,0-1.175,0.227-1.571,0.68S51.455,14.471,51.455,15.154z"/>
	<path fill="#4E4E4E" d="M68.492,18.986h-1.12V14.97c0-0.774-0.12-1.334-0.358-1.681c-0.239-0.346-0.642-0.519-1.206-0.519
		c-0.479,0-0.885,0.219-1.22,0.656c-0.334,0.437-0.502,0.961-0.502,1.571v3.989h-1.12v-4.153c0-1.375-0.53-2.063-1.592-2.063
		c-0.491,0-0.897,0.206-1.216,0.618s-0.479,0.948-0.479,1.609v3.989h-1.12v-6.995h1.12v1.106h0.027
		c0.497-0.847,1.221-1.271,2.173-1.271c0.478,0,0.895,0.133,1.25,0.4c0.355,0.266,0.599,0.616,0.73,1.048
		c0.52-0.965,1.294-1.448,2.323-1.448c1.539,0,2.309,0.95,2.309,2.849V18.986z"/>
	<path fill="#4E4E4E" d="M71.183,10.215c-0.2,0-0.371-0.068-0.513-0.205c-0.141-0.137-0.212-0.31-0.212-0.519
		s0.071-0.384,0.212-0.523c0.142-0.139,0.313-0.208,0.513-0.208c0.205,0,0.379,0.069,0.522,0.208
		c0.144,0.139,0.215,0.313,0.215,0.523c0,0.2-0.071,0.371-0.215,0.512S71.388,10.215,71.183,10.215z M71.729,18.986h-1.12v-6.995
		h1.12V18.986z"/>
	<path fill="#4E4E4E" d="M77.243,18.918c-0.265,0.146-0.612,0.219-1.045,0.219c-1.226,0-1.838-0.684-1.838-2.05v-4.139h-1.202
		v-0.957h1.202v-1.708l1.12-0.362v2.07h1.763v0.957H75.48v3.942c0,0.469,0.08,0.804,0.239,1.004s0.424,0.301,0.792,0.301
		c0.282,0,0.526-0.078,0.731-0.232V18.918z"/>
</g>
<path opacity="0.8745" fill="#FFFDFB" d="M11.775,18.938l-4.489-4.489c-0.269-0.269-0.269-0.707,0-0.976l0.977-0.977
	c0.27-0.27,0.707-0.27,0.976,0l3.024,3.024l6.477-6.477c0.27-0.27,0.707-0.27,0.977,0l0.976,0.977c0.27,0.269,0.27,0.707,0,0.976
	l-7.941,7.942C12.482,19.208,12.045,19.208,11.775,18.938z"/>
</svg>
