<?xml version="1.0" encoding="utf-8"?>
<!-- Generator: Adobe Illustrator 16.0.0, SVG Export Plug-In . SVG Version: 6.00 Build 0)  -->
<!DOCTYPE svg PUBLIC "-//W3C//DTD SVG 1.1//EN" "http://www.w3.org/Graphics/SVG/1.1/DTD/svg11.dtd">
<svg version="1.1" id="Layer_1" xmlns="http://www.w3.org/2000/svg" xmlns:xlink="http://www.w3.org/1999/xlink" x="0px" y="0px"
	 width="66.996px" height="27.98px" viewBox="0 0 66.996 27.98" enable-background="new 0 0 66.996 27.98" xml:space="preserve">
<circle fill="#037281" cx="13.99" cy="13.99" r="13.99"/>
<path opacity="0.8745" fill="#FFFDFB" d="M19.236,12.679h-3.935V8.744c0-0.483-0.392-0.875-0.875-0.875h-0.874
	c-0.483,0-0.875,0.392-0.875,0.875v3.935H8.744c-0.483,0-0.875,0.392-0.875,0.874v0.875c0,0.483,0.392,0.874,0.875,0.874h3.935
	v3.935c0,0.484,0.392,0.875,0.875,0.875h0.874c0.483,0,0.875-0.391,0.875-0.875v-3.935h3.935c0.483,0,0.875-0.391,0.875-0.874
	v-0.875C20.111,13.07,19.719,12.679,19.236,12.679z"/>
<g>
	<path fill="#4E4E4E" d="M34.678,18.59v-1.353c0.155,0.137,0.34,0.26,0.557,0.369s0.444,0.201,0.683,0.276s0.479,0.134,0.721,0.175
		s0.464,0.062,0.669,0.062c0.706,0,1.233-0.131,1.582-0.394c0.348-0.262,0.522-0.639,0.522-1.13c0-0.265-0.058-0.494-0.174-0.69
		c-0.116-0.195-0.276-0.374-0.481-0.536c-0.205-0.161-0.447-0.316-0.728-0.465c-0.28-0.147-0.582-0.304-0.905-0.468
		c-0.341-0.173-0.66-0.349-0.956-0.525c-0.296-0.178-0.554-0.374-0.772-0.588c-0.219-0.214-0.391-0.456-0.516-0.728
		c-0.125-0.271-0.188-0.589-0.188-0.953c0-0.446,0.098-0.834,0.293-1.165s0.453-0.602,0.772-0.816
		c0.319-0.214,0.682-0.373,1.09-0.478c0.407-0.104,0.823-0.157,1.247-0.157c0.965,0,1.669,0.116,2.111,0.349v1.291
		c-0.579-0.401-1.321-0.601-2.227-0.601c-0.25,0-0.501,0.026-0.751,0.079s-0.474,0.138-0.669,0.256
		c-0.196,0.119-0.355,0.271-0.478,0.458c-0.123,0.187-0.185,0.414-0.185,0.684c0,0.25,0.047,0.466,0.14,0.648
		c0.093,0.182,0.231,0.349,0.413,0.498c0.182,0.15,0.404,0.297,0.666,0.438c0.262,0.142,0.564,0.296,0.905,0.465
		c0.351,0.173,0.683,0.355,0.998,0.546c0.314,0.191,0.589,0.403,0.826,0.636s0.425,0.489,0.564,0.771
		c0.139,0.283,0.208,0.606,0.208,0.971c0,0.482-0.094,0.892-0.283,1.226c-0.189,0.335-0.444,0.607-0.765,0.816
		c-0.321,0.21-0.691,0.361-1.11,0.454c-0.419,0.094-0.86,0.141-1.325,0.141c-0.155,0-0.346-0.013-0.574-0.038
		c-0.228-0.024-0.46-0.062-0.697-0.109c-0.237-0.047-0.461-0.106-0.673-0.177C34.975,18.755,34.806,18.677,34.678,18.59z"/>
	<path fill="#4E4E4E" d="M45.663,18.918c-0.264,0.146-0.613,0.219-1.045,0.219c-1.225,0-1.837-0.684-1.837-2.05v-4.14h-1.202v-0.956
		h1.202v-1.708l1.12-0.362v2.07h1.763v0.956H43.9v3.941c0,0.47,0.08,0.805,0.239,1.005c0.159,0.2,0.423,0.301,0.792,0.301
		c0.282,0,0.526-0.078,0.731-0.232V18.918z"/>
	<path fill="#4E4E4E" d="M52.166,18.986h-1.12v-1.093h-0.027c-0.487,0.838-1.205,1.257-2.152,1.257
		c-0.697,0-1.242-0.185-1.636-0.554c-0.394-0.368-0.591-0.858-0.591-1.469c0-1.307,0.77-2.067,2.309-2.281l2.097-0.294
		c0-1.188-0.48-1.783-1.441-1.783c-0.843,0-1.603,0.287-2.282,0.861v-1.147c0.688-0.438,1.48-0.656,2.377-0.656
		c1.644,0,2.466,0.87,2.466,2.609V18.986z M51.046,15.448l-1.688,0.231c-0.519,0.073-0.911,0.202-1.175,0.387
		c-0.264,0.184-0.396,0.511-0.396,0.979c0,0.342,0.122,0.621,0.366,0.837c0.244,0.217,0.568,0.325,0.974,0.325
		c0.555,0,1.014-0.195,1.376-0.585c0.362-0.389,0.543-0.882,0.543-1.479V15.448z"/>
	<path fill="#4E4E4E" d="M53.853,18.733v-1.202c0.61,0.451,1.282,0.677,2.015,0.677c0.984,0,1.476-0.328,1.476-0.984
		c0-0.187-0.042-0.345-0.126-0.475s-0.198-0.245-0.341-0.345c-0.144-0.101-0.312-0.19-0.506-0.27
		c-0.193-0.08-0.402-0.163-0.625-0.25c-0.31-0.123-0.582-0.247-0.816-0.372c-0.234-0.125-0.43-0.267-0.587-0.424
		c-0.157-0.157-0.275-0.336-0.355-0.536s-0.12-0.435-0.12-0.703c0-0.328,0.075-0.618,0.226-0.871
		c0.15-0.253,0.351-0.465,0.601-0.636s0.536-0.299,0.857-0.386c0.321-0.086,0.652-0.13,0.994-0.13c0.605,0,1.148,0.104,1.626,0.314
		v1.134c-0.515-0.337-1.107-0.506-1.776-0.506c-0.209,0-0.398,0.024-0.567,0.072s-0.313,0.115-0.434,0.201
		c-0.121,0.087-0.214,0.19-0.28,0.312c-0.066,0.12-0.099,0.254-0.099,0.399c0,0.182,0.033,0.334,0.099,0.457
		s0.163,0.232,0.291,0.328s0.282,0.183,0.464,0.26s0.39,0.162,0.622,0.253c0.31,0.118,0.587,0.24,0.833,0.365
		s0.456,0.267,0.628,0.424s0.306,0.338,0.4,0.543c0.093,0.205,0.14,0.448,0.14,0.73c0,0.347-0.076,0.647-0.229,0.902
		c-0.153,0.255-0.356,0.467-0.611,0.635c-0.255,0.169-0.549,0.294-0.881,0.376s-0.681,0.123-1.045,0.123
		C55.005,19.15,54.381,19.012,53.853,18.733z"/>
	<path fill="#4E4E4E" d="M66.02,18.986h-1.12v-4.03c0-1.457-0.542-2.187-1.626-2.187c-0.547,0-1.006,0.211-1.38,0.632
		c-0.374,0.422-0.56,0.963-0.56,1.623v3.962h-1.121V8.63h1.121v4.522h0.027c0.537-0.883,1.302-1.325,2.295-1.325
		c1.575,0,2.363,0.949,2.363,2.849V18.986z"/>
</g>
<g>
</g>
<g>
</g>
<g>
</g>
<g>
</g>
<g>
</g>
<g>
</g>
</svg>
