<?xml version="1.0" encoding="utf-8"?>
<!-- Generator: Adobe Illustrator 16.0.0, SVG Export Plug-In . SVG Version: 6.00 Build 0)  -->
<!DOCTYPE svg PUBLIC "-//W3C//DTD SVG 1.1//EN" "http://www.w3.org/Graphics/SVG/1.1/DTD/svg11.dtd">
<svg version="1.1" id="Layer_1" xmlns="http://www.w3.org/2000/svg" xmlns:xlink="http://www.w3.org/1999/xlink" x="0px" y="0px"
	 width="95.044px" height="27.98px" viewBox="0 0 95.044 27.98" enable-background="new 0 0 95.044 27.98" xml:space="preserve">
<path fill="#037281" d="M27.98,13.99c0,7.727-6.264,13.99-13.99,13.99C6.263,27.98,0,21.717,0,13.99C0,6.263,6.263,0,13.99,0
	C21.716,0,27.98,6.263,27.98,13.99"/>
<g>
	<path fill="#4E4E4E" d="M43.032,18.986h-1.407l-5.041-7.808c-0.128-0.196-0.232-0.4-0.314-0.615h-0.041
		c0.037,0.209,0.055,0.658,0.055,1.346v7.077h-1.147V9.19h1.489l4.904,7.686c0.205,0.318,0.338,0.537,0.396,0.655h0.027
		c-0.045-0.282-0.068-0.763-0.068-1.441V9.19h1.147V18.986z"/>
	<path fill="#4E4E4E" d="M48.374,19.15c-1.034,0-1.859-0.327-2.477-0.98s-0.925-1.52-0.925-2.6c0-1.174,0.32-2.092,0.963-2.752
		c0.642-0.66,1.51-0.991,2.603-0.991c1.043,0,1.856,0.321,2.442,0.963c0.585,0.642,0.878,1.533,0.878,2.671
		c0,1.115-0.315,2.009-0.946,2.681S49.435,19.15,48.374,19.15z M48.456,12.77c-0.72,0-1.289,0.245-1.708,0.734
		s-0.628,1.165-0.628,2.025c0,0.829,0.212,1.482,0.635,1.961c0.424,0.479,0.991,0.718,1.701,0.718c0.725,0,1.281-0.235,1.67-0.704
		c0.39-0.469,0.584-1.136,0.584-2.002c0-0.874-0.194-1.548-0.584-2.021C49.737,13.007,49.18,12.77,48.456,12.77z"/>
	<path fill="#4E4E4E" d="M63.581,18.986h-1.12V14.97c0-0.774-0.12-1.334-0.358-1.681c-0.239-0.346-0.642-0.519-1.206-0.519
		c-0.479,0-0.885,0.219-1.22,0.656c-0.334,0.437-0.502,0.961-0.502,1.571v3.989h-1.12v-4.153c0-1.375-0.53-2.063-1.592-2.063
		c-0.491,0-0.897,0.206-1.216,0.618s-0.479,0.948-0.479,1.609v3.989h-1.12v-6.995h1.12v1.106h0.027
		c0.497-0.847,1.221-1.271,2.173-1.271c0.478,0,0.895,0.133,1.25,0.4c0.355,0.266,0.599,0.616,0.73,1.048
		c0.52-0.965,1.294-1.448,2.323-1.448c1.539,0,2.309,0.95,2.309,2.849V18.986z"/>
	<path fill="#4E4E4E" d="M66.272,10.215c-0.2,0-0.371-0.068-0.513-0.205c-0.141-0.137-0.212-0.31-0.212-0.519
		s0.071-0.384,0.212-0.523c0.142-0.139,0.313-0.208,0.513-0.208c0.205,0,0.379,0.069,0.522,0.208
		c0.144,0.139,0.215,0.313,0.215,0.523c0,0.2-0.071,0.371-0.215,0.512S66.477,10.215,66.272,10.215z M66.818,18.986h-1.12v-6.995
		h1.12V18.986z"/>
	<path fill="#4E4E4E" d="M74.893,18.986h-1.12v-3.989c0-1.485-0.542-2.227-1.626-2.227c-0.561,0-1.023,0.21-1.391,0.632
		c-0.366,0.421-0.55,0.953-0.55,1.595v3.989h-1.12v-6.995h1.12v1.161h0.027c0.528-0.883,1.294-1.325,2.296-1.325
		c0.765,0,1.35,0.247,1.755,0.741s0.608,1.208,0.608,2.142V18.986z"/>
	<path fill="#4E4E4E" d="M82.011,18.986H80.89v-1.093h-0.027c-0.487,0.838-1.204,1.257-2.151,1.257
		c-0.697,0-1.242-0.185-1.636-0.554c-0.395-0.368-0.591-0.858-0.591-1.469c0-1.307,0.77-2.067,2.309-2.281l2.097-0.294
		c0-1.188-0.48-1.783-1.441-1.783c-0.842,0-1.603,0.287-2.281,0.861v-1.148c0.688-0.437,1.48-0.656,2.377-0.656
		c1.645,0,2.467,0.87,2.467,2.61V18.986z M80.89,15.448l-1.687,0.231c-0.52,0.073-0.911,0.202-1.176,0.387
		c-0.264,0.184-0.396,0.511-0.396,0.979c0,0.342,0.121,0.621,0.365,0.837c0.243,0.217,0.568,0.325,0.974,0.325
		c0.556,0,1.015-0.195,1.376-0.585c0.362-0.389,0.543-0.882,0.543-1.479V15.448z"/>
	<path fill="#4E4E4E" d="M87.367,18.918c-0.265,0.146-0.612,0.219-1.045,0.219c-1.226,0-1.838-0.684-1.838-2.05v-4.139h-1.202
		v-0.957h1.202v-1.708l1.12-0.362v2.07h1.763v0.957h-1.763v3.942c0,0.469,0.08,0.804,0.239,1.004s0.424,0.301,0.792,0.301
		c0.282,0,0.526-0.078,0.731-0.232V18.918z"/>
	<path fill="#4E4E4E" d="M94.484,15.769h-4.938c0.018,0.779,0.228,1.38,0.628,1.804c0.401,0.424,0.952,0.636,1.653,0.636
		c0.788,0,1.512-0.26,2.173-0.779v1.052c-0.615,0.446-1.428,0.67-2.439,0.67c-0.988,0-1.765-0.317-2.329-0.953
		c-0.564-0.635-0.847-1.529-0.847-2.682c0-1.088,0.308-1.975,0.925-2.66s1.384-1.028,2.299-1.028c0.916,0,1.624,0.296,2.125,0.888
		c0.501,0.592,0.751,1.414,0.751,2.466V15.769z M93.336,14.819c-0.005-0.646-0.16-1.15-0.468-1.51s-0.734-0.54-1.281-0.54
		c-0.528,0-0.977,0.189-1.346,0.567s-0.597,0.872-0.683,1.482H93.336z"/>
</g>
<path opacity="0.8745" fill="#FFFDFB" d="M11.775,18.938l-4.489-4.489c-0.269-0.269-0.269-0.707,0-0.976l0.977-0.977
	c0.27-0.27,0.707-0.27,0.976,0l3.024,3.024l6.477-6.477c0.27-0.27,0.707-0.27,0.977,0l0.976,0.977c0.27,0.269,0.27,0.707,0,0.976
	l-7.941,7.942C12.482,19.208,12.045,19.208,11.775,18.938z"/>
</svg>
