<?xml version="1.0" encoding="utf-8"?>
<!-- Generator: Adobe Illustrator 16.0.0, SVG Export Plug-In . SVG Version: 6.00 Build 0)  -->
<!DOCTYPE svg PUBLIC "-//W3C//DTD SVG 1.1//EN" "http://www.w3.org/Graphics/SVG/1.1/DTD/svg11.dtd">
<svg version="1.1" id="Layer_1" xmlns="http://www.w3.org/2000/svg" xmlns:xlink="http://www.w3.org/1999/xlink" x="0px" y="0px"
	 width="89.594px" height="27.98px" viewBox="0 0 89.594 27.98" enable-background="new 0 0 89.594 27.98" xml:space="preserve">
<circle fill="#037281" cx="13.99" cy="13.99" r="13.99"/>
<path opacity="0.8745" fill="#FFFDFB" d="M19.236,12.679h-3.935V8.744c0-0.483-0.392-0.875-0.875-0.875h-0.874
	c-0.483,0-0.875,0.392-0.875,0.875v3.935H8.744c-0.483,0-0.875,0.392-0.875,0.874v0.875c0,0.483,0.392,0.874,0.875,0.874h3.935
	v3.935c0,0.484,0.392,0.875,0.875,0.875h0.874c0.483,0,0.875-0.391,0.875-0.875v-3.935h3.935c0.483,0,0.875-0.391,0.875-0.874
	v-0.875C20.111,13.07,19.719,12.679,19.236,12.679z"/>
<g>
	<path fill="#4E4E4E" d="M42.418,9.19l-3.627,9.796h-1.264L33.975,9.19h1.277l2.712,7.767c0.086,0.251,0.152,0.54,0.198,0.868h0.027
		c0.036-0.273,0.111-0.567,0.225-0.882l2.767-7.753H42.418z"/>
	<path fill="#4E4E4E" d="M48.682,18.986h-1.12v-1.093h-0.027c-0.487,0.838-1.205,1.257-2.152,1.257
		c-0.697,0-1.242-0.185-1.636-0.554c-0.394-0.368-0.591-0.858-0.591-1.469c0-1.307,0.77-2.067,2.309-2.281l2.097-0.294
		c0-1.188-0.48-1.783-1.441-1.783c-0.843,0-1.603,0.287-2.282,0.861v-1.147c0.688-0.438,1.48-0.656,2.377-0.656
		c1.644,0,2.466,0.87,2.466,2.609V18.986z M47.562,15.448l-1.688,0.231c-0.519,0.073-0.911,0.202-1.175,0.387
		c-0.264,0.184-0.396,0.511-0.396,0.979c0,0.342,0.122,0.621,0.366,0.837c0.244,0.217,0.568,0.325,0.974,0.325
		c0.555,0,1.014-0.195,1.376-0.585c0.362-0.389,0.543-0.882,0.543-1.479V15.448z"/>
	<path fill="#4E4E4E" d="M51.913,18.986h-1.121V8.63h1.121V18.986z"/>
	<path fill="#4E4E4E" d="M54.755,10.215c-0.201,0-0.372-0.068-0.513-0.205s-0.211-0.31-0.211-0.519s0.07-0.384,0.211-0.523
		c0.141-0.139,0.312-0.208,0.513-0.208c0.205,0,0.379,0.069,0.522,0.208c0.144,0.139,0.215,0.313,0.215,0.523
		c0,0.2-0.072,0.371-0.215,0.512S54.96,10.215,54.755,10.215z M55.302,18.986h-1.121v-6.995h1.121V18.986z"/>
	<path fill="#4E4E4E" d="M63.54,18.986h-1.121v-1.188h-0.027c-0.519,0.901-1.32,1.353-2.404,1.353c-0.879,0-1.582-0.313-2.107-0.939
		s-0.789-1.479-0.789-2.559c0-1.156,0.292-2.083,0.875-2.78c0.583-0.696,1.359-1.045,2.329-1.045c0.961,0,1.66,0.378,2.097,1.134
		h0.027V8.63h1.121V18.986z M62.419,15.823v-1.031c0-0.564-0.187-1.043-0.56-1.435s-0.847-0.588-1.421-0.588
		c-0.683,0-1.22,0.251-1.612,0.752c-0.392,0.501-0.588,1.193-0.588,2.076c0,0.807,0.188,1.443,0.564,1.91
		c0.375,0.467,0.88,0.7,1.513,0.7c0.624,0,1.131-0.226,1.52-0.677C62.225,17.08,62.419,16.511,62.419,15.823z"/>
	<path fill="#4E4E4E" d="M70.815,18.986h-1.121v-1.093h-0.027c-0.487,0.838-1.204,1.257-2.151,1.257
		c-0.697,0-1.242-0.185-1.636-0.554c-0.395-0.368-0.591-0.858-0.591-1.469c0-1.307,0.77-2.067,2.309-2.281l2.097-0.294
		c0-1.188-0.48-1.783-1.441-1.783c-0.842,0-1.603,0.287-2.281,0.861v-1.147c0.688-0.438,1.48-0.656,2.377-0.656
		c1.645,0,2.467,0.87,2.467,2.609V18.986z M69.694,15.448l-1.687,0.231c-0.52,0.073-0.911,0.202-1.176,0.387
		c-0.264,0.184-0.396,0.511-0.396,0.979c0,0.342,0.121,0.621,0.365,0.837c0.243,0.217,0.568,0.325,0.974,0.325
		c0.556,0,1.015-0.195,1.376-0.585c0.362-0.389,0.543-0.882,0.543-1.479V15.448z"/>
	<path fill="#4E4E4E" d="M76.171,18.918c-0.265,0.146-0.612,0.219-1.045,0.219c-1.226,0-1.838-0.684-1.838-2.05v-4.14h-1.202v-0.956
		h1.202v-1.708l1.12-0.362v2.07h1.763v0.956h-1.763v3.941c0,0.47,0.08,0.805,0.239,1.005s0.424,0.301,0.792,0.301
		c0.282,0,0.526-0.078,0.731-0.232V18.918z"/>
	<path fill="#4E4E4E" d="M80.59,19.15c-1.034,0-1.859-0.327-2.477-0.98s-0.925-1.52-0.925-2.6c0-1.175,0.32-2.092,0.963-2.753
		c0.642-0.66,1.51-0.99,2.603-0.99c1.043,0,1.856,0.321,2.442,0.963c0.585,0.643,0.878,1.533,0.878,2.672
		c0,1.115-0.315,2.009-0.946,2.681S81.651,19.15,80.59,19.15z M80.672,12.77c-0.72,0-1.289,0.245-1.708,0.734
		c-0.419,0.49-0.628,1.165-0.628,2.025c0,0.829,0.212,1.482,0.635,1.961c0.424,0.479,0.991,0.718,1.701,0.718
		c0.725,0,1.281-0.235,1.67-0.704c0.39-0.469,0.584-1.136,0.584-2.002c0-0.874-0.194-1.548-0.584-2.021
		C81.953,13.007,81.396,12.77,80.672,12.77z"/>
	<path fill="#4E4E4E" d="M89.513,13.125c-0.196-0.15-0.479-0.226-0.848-0.226c-0.478,0-0.878,0.226-1.198,0.677
		c-0.321,0.451-0.482,1.065-0.482,1.845v3.565h-1.12v-6.995h1.12v1.441h0.027c0.16-0.492,0.403-0.876,0.731-1.151
		s0.694-0.413,1.1-0.413c0.291,0,0.515,0.032,0.67,0.096V13.125z"/>
</g>
<g>
</g>
<g>
</g>
<g>
</g>
<g>
</g>
<g>
</g>
<g>
</g>
</svg>
