<?xml version="1.0" encoding="utf-8"?>
<!-- Generator: Adobe Illustrator 16.0.0, SVG Export Plug-In . SVG Version: 6.00 Build 0)  -->
<!DOCTYPE svg PUBLIC "-//W3C//DTD SVG 1.1//EN" "http://www.w3.org/Graphics/SVG/1.1/DTD/svg11.dtd">
<svg version="1.1" id="Layer_1" xmlns="http://www.w3.org/2000/svg" xmlns:xlink="http://www.w3.org/1999/xlink" x="0px" y="0px"
	 width="149.591px" height="27.98px" viewBox="0 0 149.591 27.98" enable-background="new 0 0 149.591 27.98" xml:space="preserve">
<path fill="#037281" d="M27.98,13.99c0,7.727-6.264,13.99-13.99,13.99C6.263,27.98,0,21.717,0,13.99C0,6.263,6.263,0,13.99,0
	C21.716,0,27.98,6.263,27.98,13.99"/>
<g>
	<path fill="#4E4E4E" d="M43.032,18.986h-1.407l-5.041-7.808c-0.128-0.196-0.232-0.4-0.314-0.615h-0.041
		c0.037,0.209,0.055,0.658,0.055,1.346v7.077h-1.147V9.19h1.489l4.904,7.686c0.205,0.318,0.338,0.537,0.396,0.655h0.027
		c-0.045-0.282-0.068-0.763-0.068-1.441V9.19h1.147V18.986z"/>
	<path fill="#4E4E4E" d="M48.374,19.15c-1.034,0-1.859-0.327-2.477-0.98s-0.925-1.52-0.925-2.6c0-1.174,0.32-2.092,0.963-2.752
		c0.642-0.66,1.51-0.991,2.603-0.991c1.043,0,1.856,0.321,2.442,0.963c0.585,0.642,0.878,1.533,0.878,2.671
		c0,1.115-0.315,2.009-0.946,2.681S49.435,19.15,48.374,19.15z M48.456,12.77c-0.72,0-1.289,0.245-1.708,0.734
		s-0.628,1.165-0.628,2.025c0,0.829,0.212,1.482,0.635,1.961c0.424,0.479,0.991,0.718,1.701,0.718c0.725,0,1.281-0.235,1.67-0.704
		c0.39-0.469,0.584-1.136,0.584-2.002c0-0.874-0.194-1.548-0.584-2.021C49.737,13.007,49.18,12.77,48.456,12.77z"/>
	<path fill="#4E4E4E" d="M63.581,18.986h-1.12V14.97c0-0.774-0.12-1.334-0.358-1.681c-0.239-0.346-0.642-0.519-1.206-0.519
		c-0.479,0-0.885,0.219-1.22,0.656c-0.334,0.437-0.502,0.961-0.502,1.571v3.989h-1.12v-4.153c0-1.375-0.53-2.063-1.592-2.063
		c-0.491,0-0.897,0.206-1.216,0.618s-0.479,0.948-0.479,1.609v3.989h-1.12v-6.995h1.12v1.106h0.027
		c0.497-0.847,1.221-1.271,2.173-1.271c0.478,0,0.895,0.133,1.25,0.4c0.355,0.266,0.599,0.616,0.73,1.048
		c0.52-0.965,1.294-1.448,2.323-1.448c1.539,0,2.309,0.95,2.309,2.849V18.986z"/>
	<path fill="#4E4E4E" d="M66.272,10.215c-0.2,0-0.371-0.068-0.513-0.205c-0.141-0.137-0.212-0.31-0.212-0.519
		s0.071-0.384,0.212-0.523c0.142-0.139,0.313-0.208,0.513-0.208c0.205,0,0.379,0.069,0.522,0.208
		c0.144,0.139,0.215,0.313,0.215,0.523c0,0.2-0.071,0.371-0.215,0.512S66.477,10.215,66.272,10.215z M66.818,18.986h-1.12v-6.995
		h1.12V18.986z"/>
	<path fill="#4E4E4E" d="M74.893,18.986h-1.12v-3.989c0-1.485-0.542-2.227-1.626-2.227c-0.561,0-1.023,0.21-1.391,0.632
		c-0.366,0.421-0.55,0.953-0.55,1.595v3.989h-1.12v-6.995h1.12v1.161h0.027c0.528-0.883,1.294-1.325,2.296-1.325
		c0.765,0,1.35,0.247,1.755,0.741s0.608,1.208,0.608,2.142V18.986z"/>
	<path fill="#4E4E4E" d="M82.011,18.986H80.89v-1.093h-0.027c-0.487,0.838-1.204,1.257-2.151,1.257
		c-0.697,0-1.242-0.185-1.636-0.554c-0.395-0.368-0.591-0.858-0.591-1.469c0-1.307,0.77-2.067,2.309-2.281l2.097-0.294
		c0-1.188-0.48-1.783-1.441-1.783c-0.842,0-1.603,0.287-2.281,0.861v-1.148c0.688-0.437,1.48-0.656,2.377-0.656
		c1.645,0,2.467,0.87,2.467,2.61V18.986z M80.89,15.448l-1.687,0.231c-0.52,0.073-0.911,0.202-1.176,0.387
		c-0.264,0.184-0.396,0.511-0.396,0.979c0,0.342,0.121,0.621,0.365,0.837c0.243,0.217,0.568,0.325,0.974,0.325
		c0.556,0,1.015-0.195,1.376-0.585c0.362-0.389,0.543-0.882,0.543-1.479V15.448z"/>
	<path fill="#4E4E4E" d="M87.367,18.918c-0.265,0.146-0.612,0.219-1.045,0.219c-1.226,0-1.838-0.684-1.838-2.05v-4.139h-1.202
		v-0.957h1.202v-1.708l1.12-0.362v2.07h1.763v0.957h-1.763v3.942c0,0.469,0.08,0.804,0.239,1.004s0.424,0.301,0.792,0.301
		c0.282,0,0.526-0.078,0.731-0.232V18.918z"/>
	<path fill="#4E4E4E" d="M94.484,15.769h-4.938c0.018,0.779,0.228,1.38,0.628,1.804c0.401,0.424,0.952,0.636,1.653,0.636
		c0.788,0,1.512-0.26,2.173-0.779v1.052c-0.615,0.446-1.428,0.67-2.439,0.67c-0.988,0-1.765-0.317-2.329-0.953
		c-0.564-0.635-0.847-1.529-0.847-2.682c0-1.088,0.308-1.975,0.925-2.66s1.384-1.028,2.299-1.028c0.916,0,1.624,0.296,2.125,0.888
		c0.501,0.592,0.751,1.414,0.751,2.466V15.769z M93.336,14.819c-0.005-0.646-0.16-1.15-0.468-1.51s-0.734-0.54-1.281-0.54
		c-0.528,0-0.977,0.189-1.346,0.567s-0.597,0.872-0.683,1.482H93.336z"/>
	<path fill="#4E4E4E" d="M99.586,18.733v-1.202c0.61,0.451,1.282,0.677,2.016,0.677c0.983,0,1.476-0.328,1.476-0.984
		c0-0.187-0.042-0.345-0.126-0.475c-0.085-0.13-0.198-0.245-0.342-0.345c-0.144-0.101-0.313-0.19-0.506-0.27
		c-0.193-0.08-0.401-0.163-0.625-0.25c-0.31-0.123-0.582-0.247-0.816-0.372s-0.43-0.267-0.587-0.424
		c-0.157-0.157-0.276-0.335-0.355-0.536c-0.08-0.2-0.12-0.435-0.12-0.704c0-0.328,0.075-0.618,0.226-0.871
		c0.15-0.253,0.351-0.465,0.602-0.635c0.25-0.171,0.536-0.3,0.857-0.386s0.652-0.13,0.994-0.13c0.605,0,1.147,0.105,1.625,0.314
		v1.134c-0.515-0.337-1.106-0.505-1.775-0.505c-0.21,0-0.398,0.024-0.567,0.072s-0.313,0.115-0.434,0.202
		c-0.121,0.086-0.214,0.19-0.28,0.311s-0.099,0.254-0.099,0.4c0,0.182,0.032,0.334,0.099,0.458s0.163,0.232,0.29,0.328
		c0.128,0.096,0.282,0.183,0.465,0.26c0.183,0.078,0.39,0.162,0.622,0.253c0.31,0.118,0.587,0.24,0.833,0.365
		s0.455,0.267,0.629,0.424c0.173,0.157,0.306,0.338,0.399,0.543c0.093,0.205,0.14,0.448,0.14,0.73c0,0.347-0.076,0.647-0.229,0.902
		s-0.356,0.467-0.611,0.635c-0.255,0.169-0.549,0.294-0.882,0.376c-0.332,0.082-0.681,0.123-1.045,0.123
		C100.739,19.15,100.115,19.012,99.586,18.733z"/>
	<path fill="#4E4E4E" d="M111.569,15.769h-4.938c0.018,0.779,0.228,1.38,0.628,1.804c0.401,0.424,0.952,0.636,1.653,0.636
		c0.788,0,1.512-0.26,2.173-0.779v1.052c-0.615,0.446-1.428,0.67-2.439,0.67c-0.988,0-1.765-0.317-2.329-0.953
		c-0.564-0.635-0.847-1.529-0.847-2.682c0-1.088,0.308-1.975,0.925-2.66s1.384-1.028,2.299-1.028c0.916,0,1.624,0.296,2.125,0.888
		c0.501,0.592,0.751,1.414,0.751,2.466V15.769z M110.421,14.819c-0.005-0.646-0.16-1.15-0.468-1.51s-0.734-0.54-1.281-0.54
		c-0.528,0-0.977,0.189-1.346,0.567s-0.597,0.872-0.683,1.482H110.421z"/>
	<path fill="#4E4E4E" d="M114.383,18.986h-1.12V8.63h1.12V18.986z"/>
	<path fill="#4E4E4E" d="M122.273,15.769h-4.938c0.018,0.779,0.228,1.38,0.628,1.804c0.401,0.424,0.952,0.636,1.653,0.636
		c0.788,0,1.512-0.26,2.173-0.779v1.052c-0.615,0.446-1.428,0.67-2.439,0.67c-0.988,0-1.765-0.317-2.329-0.953
		c-0.564-0.635-0.847-1.529-0.847-2.682c0-1.088,0.308-1.975,0.925-2.66s1.384-1.028,2.299-1.028c0.916,0,1.624,0.296,2.125,0.888
		c0.501,0.592,0.751,1.414,0.751,2.466V15.769z M121.125,14.819c-0.005-0.646-0.16-1.15-0.468-1.51s-0.734-0.54-1.281-0.54
		c-0.528,0-0.977,0.189-1.346,0.567s-0.597,0.872-0.683,1.482H121.125z"/>
	<path fill="#4E4E4E" d="M128.736,18.665c-0.538,0.323-1.175,0.485-1.913,0.485c-0.997,0-1.802-0.324-2.415-0.974
		c-0.612-0.648-0.918-1.49-0.918-2.524c0-1.152,0.33-2.077,0.99-2.776s1.541-1.049,2.644-1.049c0.614,0,1.156,0.114,1.626,0.342
		v1.147c-0.52-0.364-1.075-0.546-1.667-0.546c-0.715,0-1.302,0.256-1.759,0.769c-0.458,0.512-0.687,1.185-0.687,2.018
		c0,0.82,0.215,1.467,0.646,1.94c0.43,0.474,1.008,0.711,1.731,0.711c0.61,0,1.184-0.203,1.722-0.608V18.665z"/>
	<path fill="#4E4E4E" d="M133.674,18.918c-0.265,0.146-0.612,0.219-1.045,0.219c-1.226,0-1.838-0.684-1.838-2.05v-4.139h-1.202
		v-0.957h1.202v-1.708l1.12-0.362v2.07h1.763v0.957h-1.763v3.942c0,0.469,0.08,0.804,0.239,1.004s0.424,0.301,0.792,0.301
		c0.282,0,0.526-0.078,0.731-0.232V18.918z"/>
	<path fill="#4E4E4E" d="M140.792,15.769h-4.938c0.018,0.779,0.228,1.38,0.628,1.804c0.401,0.424,0.952,0.636,1.653,0.636
		c0.788,0,1.512-0.26,2.173-0.779v1.052c-0.615,0.446-1.428,0.67-2.439,0.67c-0.988,0-1.765-0.317-2.329-0.953
		c-0.564-0.635-0.847-1.529-0.847-2.682c0-1.088,0.308-1.975,0.925-2.66s1.384-1.028,2.299-1.028c0.916,0,1.624,0.296,2.125,0.888
		c0.501,0.592,0.751,1.414,0.751,2.466V15.769z M139.645,14.819c-0.005-0.646-0.16-1.15-0.468-1.51s-0.734-0.54-1.281-0.54
		c-0.528,0-0.977,0.189-1.346,0.567s-0.597,0.872-0.683,1.482H139.645z"/>
	<path fill="#4E4E4E" d="M148.458,18.986h-1.12v-1.188h-0.027c-0.52,0.901-1.321,1.353-2.405,1.353
		c-0.879,0-1.581-0.313-2.107-0.939c-0.525-0.626-0.788-1.479-0.788-2.559c0-1.156,0.291-2.083,0.874-2.78s1.359-1.045,2.329-1.045
		c0.961,0,1.66,0.378,2.098,1.134h0.027V8.63h1.12V18.986z M147.337,15.823v-1.031c0-0.564-0.188-1.043-0.561-1.435
		s-0.847-0.587-1.421-0.587c-0.683,0-1.221,0.25-1.612,0.751s-0.587,1.193-0.587,2.076c0,0.807,0.188,1.443,0.563,1.91
		s0.88,0.7,1.513,0.7c0.624,0,1.131-0.226,1.521-0.677C147.142,17.08,147.337,16.511,147.337,15.823z"/>
</g>
<path opacity="0.8745" fill="#FFFDFB" d="M19.039,10.493c-0.613-0.012-1.114,0.502-1.114,1.113v2.384h-0.219V9.176
	c0-0.614-0.502-1.127-1.114-1.115c-0.595,0.012-1.072,0.496-1.072,1.094v4.836h-0.218V8.109c0-0.612-0.502-1.126-1.114-1.114
	c-0.595,0.012-1.072,0.497-1.072,1.093v5.902h-0.219V9.202c0-0.611-0.502-1.126-1.114-1.114c-0.595,0.012-1.072,0.497-1.072,1.094
	v6.448L9.846,14.44c-0.355-0.488-1.038-0.596-1.526-0.242c-0.488,0.356-0.596,1.04-0.241,1.527l3.431,4.72
	c0.263,0.36,0.616,0.54,1.061,0.54h5.4c0.607,0,1.137-0.419,1.276-1.011l0.725-3.079c0.093-0.395,0.14-0.795,0.14-1.201v-4.108
	C20.111,10.99,19.633,10.505,19.039,10.493z"/>
</svg>
