<?xml version="1.0" encoding="utf-8"?>
<!-- Generator: Adobe Illustrator 16.0.0, SVG Export Plug-In . SVG Version: 6.00 Build 0)  -->
<!DOCTYPE svg PUBLIC "-//W3C//DTD SVG 1.1//EN" "http://www.w3.org/Graphics/SVG/1.1/DTD/svg11.dtd">
<svg version="1.1" id="Layer_1" focusable="false" xmlns="http://www.w3.org/2000/svg" xmlns:xlink="http://www.w3.org/1999/xlink"
	 x="0px" y="0px" width="22px" height="22.001px" viewBox="292.291 50.167 22 22.001"
	 enable-background="new 292.291 50.167 22 22.001" xml:space="preserve">
<circle fill="#8B0000" cx="303.291" cy="61.167" r="11"/>
<path fill="#FFFFFF" d="M299.091,65.067v0.601c0,0.165,0.135,0.299,0.301,0.299h4.199c0.167,0,0.301-0.134,0.301-0.299v-6.427
	c0.084-0.037,0.167-0.082,0.243-0.134L306.799,60c0.156,0.053,0.328-0.032,0.38-0.189l0.19-0.569c0.052-0.157-0.031-0.327-0.19-0.38
	l-2.406-0.807c0.008-0.063,0.018-0.124,0.018-0.188c0-0.828-0.672-1.5-1.499-1.5c-0.558,0-1.037,0.307-1.296,0.757l-2.211-0.742
	c-0.158-0.053-0.328,0.032-0.38,0.189l-0.191,0.569c-0.052,0.157,0.033,0.328,0.19,0.38l2.474,0.83
	c0.137,0.398,0.431,0.723,0.813,0.89v5.527h-3.299C299.226,64.768,299.091,64.902,299.091,65.067z M297.291,62.067
	c0,0.828,1.074,1.5,2.4,1.5s2.4-0.672,2.4-1.5l0,0c0-0.293,0.039-0.135-1.595-3.403c-0.331-0.664-1.279-0.663-1.609,0
	C297.267,61.903,297.291,61.764,297.291,62.067L297.291,62.067z M298.341,61.767l1.35-2.7l1.351,2.7H298.341z M304.491,64.467
	L304.491,64.467c0,0.828,1.076,1.5,2.401,1.5c1.325,0,2.398-0.672,2.398-1.5l0,0c0-0.293,0.039-0.135-1.594-3.403
	c-0.334-0.663-1.279-0.661-1.612,0C304.468,64.305,304.491,64.164,304.491,64.467z M305.541,64.168l1.352-2.701l1.349,2.701H305.541
	z"/>
</svg>
