<svg id="Layer_1" data-name="Layer 1" xmlns="http://www.w3.org/2000/svg" viewBox="0 0 1366 768"><defs><style>.cls-1{fill:#ecf6f7;}.cls-2,.cls-4,.cls-8{fill:#037281;}.cls-3,.cls-8{font-size:12px;}.cls-11,.cls-16,.cls-17,.cls-23,.cls-24,.cls-3,.cls-7{fill:#fff;}.cls-11,.cls-3,.cls-4,.cls-5,.cls-6,.cls-8{font-family:Roboto-Bold, Roboto;font-weight:700;}.cls-11,.cls-4,.cls-5,.cls-6{font-size:18px;}.cls-4,.cls-5,.cls-6{letter-spacing:-0.01em;}.cls-15,.cls-5{fill:#fe7751;}.cls-22,.cls-6{fill:#0db9cb;}.cls-9{fill:#3d3d3d;}.cls-10{letter-spacing:-0.01em;}.cls-11{letter-spacing:-0.02em;}.cls-12{letter-spacing:-0.03em;}.cls-13,.cls-14{font-size:15.99px;letter-spacing:-0.01em;}.cls-13,.cls-16{font-family:Roboto-Regular, Roboto;}.cls-14,.cls-17,.cls-23,.cls-24{font-family:Roboto-Black, Roboto;font-weight:800;}.cls-16,.cls-17{font-size:17.82px;}.cls-16{letter-spacing:-0.01em;}.cls-17{letter-spacing:-0.01em;}.cls-18{letter-spacing:-0.02em;}.cls-19,.cls-21{fill:none;stroke-miterlimit:10;}.cls-19{stroke:#fe7751;stroke-width:3px;}.cls-20{opacity:0.5;}.cls-21{stroke:#3d3d3d;stroke-width:4px;}.cls-23,.cls-24{font-size:17.58px;}.cls-23{letter-spacing:-0.02em;}.cls-24{letter-spacing:-0.02em;}</style></defs><rect class="cls-1" x="618" y="60" width="96" height="203" rx="3.64"/><circle class="cls-2" cx="296.61" cy="195.27" r="102.61"/><rect class="cls-2" x="638" y="103" width="55" height="55" rx="3.15"/><path class="cls-2" d="M652.39,185H694a0,0,0,0,1,0,0v42.76A12.24,12.24,0,0,1,681.76,240H639a0,0,0,0,1,0,0V198.39A13.39,13.39,0,0,1,652.39,185Z"/><text class="cls-3" transform="translate(651.67 133.07)">chain</text><text class="cls-3" transform="translate(653.3 218.07)">cMix</text><text class="cls-4" transform="translate(645.21 87.02)">Node</text><rect class="cls-1" x="751" y="60" width="96" height="203" rx="3.64"/><rect class="cls-2" x="771" y="103" width="55" height="55" rx="3.15"/><path class="cls-2" d="M785.39,185H827a0,0,0,0,1,0,0v42.76A12.24,12.24,0,0,1,814.76,240H772a0,0,0,0,1,0,0V198.39A13.39,13.39,0,0,1,785.39,185Z"/><text class="cls-3" transform="translate(784.67 133.07)">chain</text><text class="cls-3" transform="translate(786.3 218.07)">cMix</text><text class="cls-4" transform="translate(778.21 87.02)">Node</text><text class="cls-5" transform="translate(862.57 136.02)">xx chain</text><text class="cls-6" transform="translate(880.75 209.02)">mix<tspan x="-17.62" y="21.6">network</tspan></text><rect class="cls-1" x="485" y="60" width="96" height="203" rx="3.64"/><rect class="cls-2" x="505" y="103" width="55" height="55" rx="3.15"/><path class="cls-2" d="M519.39,185H561a0,0,0,0,1,0,0v42.76A12.24,12.24,0,0,1,548.76,240H506a0,0,0,0,1,0,0V198.39A13.39,13.39,0,0,1,519.39,185Z"/><text class="cls-3" transform="translate(518.67 133.07)">chain</text><text class="cls-3" transform="translate(520.3 218.07)">cMix</text><text class="cls-4" transform="translate(512.21 87.02)">Node</text><rect class="cls-2" x="485" y="373" width="96" height="203" rx="3.64"/><path class="cls-7" d="M561.86,471H503.14a5,5,0,0,1-4.94-6l9-44.94a5,5,0,0,1,4.93-4h40.76a5,5,0,0,1,4.93,4l9,44.94A5,5,0,0,1,561.86,471Z"/><path class="cls-7" d="M541.05,498H516.69A10.68,10.68,0,0,0,506,508.69v26L525.24,553H550.5A10.5,10.5,0,0,0,561,542.5v-27Z"/><text class="cls-8" transform="translate(520.33 441.07)">light<tspan x="-1.39" y="14.4">node</tspan></text><path class="cls-9" d="M579,695.4V652.6A12.6,12.6,0,0,1,566.4,640H499.6A12.6,12.6,0,0,1,487,652.6v42.8A12.6,12.6,0,0,1,499.6,708h66.8A12.6,12.6,0,0,1,579,695.4Z"/><text class="cls-8" transform="translate(520.3 520.07)">cMix<tspan x="-10.14" y="14.4">Gatew</tspan><tspan class="cls-10" x="23.83" y="14.4">a</tspan><tspan x="30.17" y="14.4">y</tspan></text><text class="cls-3" transform="translate(520.3 670.07)">cMix<tspan x="-1.91" y="14.4">client</tspan></text><path class="cls-9" d="M712,695.4V652.6A12.6,12.6,0,0,1,699.4,640H632.6A12.6,12.6,0,0,1,620,652.6v42.8A12.6,12.6,0,0,1,632.6,708h66.8A12.6,12.6,0,0,1,712,695.4Z"/><text class="cls-3" transform="translate(653.3 670.07)">cMix<tspan x="-1.91" y="14.4">client</tspan></text><path class="cls-9" d="M845,695.4V652.6A12.6,12.6,0,0,1,832.4,640H765.6A12.6,12.6,0,0,1,753,652.6v42.8A12.6,12.6,0,0,1,765.6,708h66.8A12.6,12.6,0,0,1,845,695.4Z"/><text class="cls-3" transform="translate(786.3 670.07)">cMix<tspan x="-1.91" y="14.4">client</tspan></text><text class="cls-11" transform="translate(499.65 400.02)">Gatew<tspan class="cls-12" x="49.15" y="0">a</tspan><tspan x="58.31" y="0">y</tspan></text><rect class="cls-2" x="619" y="373" width="96" height="203" rx="3.64"/><path class="cls-7" d="M695.86,471H637.14a5,5,0,0,1-4.94-6l9-44.94a5,5,0,0,1,4.93-4h40.76a5,5,0,0,1,4.93,4l9,44.94A5,5,0,0,1,695.86,471Z"/><path class="cls-7" d="M675.05,498H650.69A10.68,10.68,0,0,0,640,508.69v26L659.24,553H684.5A10.5,10.5,0,0,0,695,542.5v-27Z"/><text class="cls-8" transform="translate(654.33 441.07)">light<tspan x="-1.39" y="14.4">node</tspan></text><text class="cls-8" transform="translate(654.3 520.07)">cMix<tspan x="-10.14" y="14.4">Gatew</tspan><tspan class="cls-10" x="23.83" y="14.4">a</tspan><tspan x="30.17" y="14.4">y</tspan></text><text class="cls-11" transform="translate(633.65 400.02)">Gatew<tspan class="cls-12" x="49.15" y="0">a</tspan><tspan x="58.31" y="0">y</tspan></text><rect class="cls-2" x="751" y="373" width="96" height="203" rx="3.64"/><path class="cls-7" d="M827.86,471H769.14a5,5,0,0,1-4.94-6l9-44.94a5,5,0,0,1,4.93-4h40.76a5,5,0,0,1,4.93,4l9,44.94A5,5,0,0,1,827.86,471Z"/><path class="cls-7" d="M807.05,498H782.69A10.68,10.68,0,0,0,772,508.69v26L791.24,553H816.5A10.5,10.5,0,0,0,827,542.5v-27Z"/><text class="cls-8" transform="translate(786.33 441.07)">light<tspan x="-1.39" y="14.4">node</tspan></text><text class="cls-8" transform="translate(786.3 520.07)">cMix<tspan x="-10.14" y="14.4">Gatew</tspan><tspan class="cls-10" x="23.83" y="14.4">a</tspan><tspan x="30.17" y="14.4">y</tspan></text><text class="cls-11" transform="translate(765.65 400.02)">Gatew<tspan class="cls-12" x="49.15" y="0">a</tspan><tspan x="58.31" y="0">y</tspan></text><text class="cls-13" transform="translate(369 64.37)">Network</text><text class="cls-14" transform="translate(369 83.03)">Membership</text><rect class="cls-15" x="1068" y="84" width="105" height="116" rx="8.28"/><text class="cls-16" transform="translate(1100.05 138.38)">Block</text><text class="cls-17" transform="translate(1088.32 159.17)">Explo<tspan class="cls-18" x="43.19" y="0">r</tspan><tspan x="49.6" y="0">er</tspan></text><rect class="cls-19" x="474" y="94" width="467" height="77" rx="15.74"/><g class="cls-20"><path class="cls-21" d="M484.42,201.74H436.57a8.17,8.17,0,0,0-8.17,8.17v26.31a11.57,11.57,0,0,1-11.57,11.57H360.3v2.61A18.69,18.69,0,0,0,379,269.09H588.54A12.46,12.46,0,0,0,601,256.63v-46a8.13,8.13,0,0,1,8.14-8.14h4"/><polygon class="cls-9" points="495.71 201.74 479.8 195.23 483.57 201.74 479.8 208.24 495.71 201.74"/><polygon class="cls-9" points="624.43 202.5 608.51 209 612.29 202.5 608.51 196 624.43 202.5"/></g><g class="cls-20"><path class="cls-21" d="M360.3,244.79v23.67a11.84,11.84,0,0,0,11.84,11.84H715a16,16,0,0,0,16-16V210.1a10.61,10.61,0,0,1,10.6-10.6h4"/><polygon class="cls-9" points="756.9 199.5 740.98 206 744.76 199.5 740.98 193 756.9 199.5"/></g><path class="cls-22" d="M925.26,177A12.75,12.75,0,0,1,938,189.74v45.52A12.75,12.75,0,0,1,925.26,248H489.74A12.75,12.75,0,0,1,477,235.26V189.74A12.75,12.75,0,0,1,489.74,177H925.26m0-3H489.74A15.74,15.74,0,0,0,474,189.74v45.52A15.74,15.74,0,0,0,489.74,251H925.26A15.74,15.74,0,0,0,941,235.26V189.74A15.74,15.74,0,0,0,925.26,174Z"/><path class="cls-21" d="M987.94,157h8.64a22.85,22.85,0,0,1,22.84,22.85v220.3A22.85,22.85,0,0,1,996.58,423H893.12"/><polygon class="cls-9" points="993.56 164.41 990.41 157 993.56 149.59 976 157 993.56 164.41"/><polygon class="cls-9" points="879 423 898.9 414.87 894.18 423 898.9 431.13 879 423"/><line class="cls-21" x1="988.12" y1="126.5" x2="1020.93" y2="126.5"/><polygon class="cls-9" points="974 126.5 993.9 134.63 989.18 126.5 993.9 118.37 974 126.5"/><path class="cls-9" d="M1033,126.5c-5.68,2.11-12.73,5.7-17.09,9.51l3.44-9.51-3.44-9.51C1020.27,120.8,1027.32,124.39,1033,126.5Z"/><line class="cls-21" x1="798.5" y1="263" x2="798.5" y2="343.93"/><path class="cls-9" d="M798.5,356c-2.11-5.68-5.7-12.73-9.51-17.1l9.51,3.45L808,338.9C804.2,343.27,800.61,350.32,798.5,356Z"/><line class="cls-21" x1="666.5" y1="263" x2="666.5" y2="343.93"/><path class="cls-9" d="M666.5,356c-2.11-5.68-5.7-12.73-9.51-17.1l9.51,3.45L676,338.9C672.2,343.27,668.61,350.32,666.5,356Z"/><line class="cls-21" x1="532.5" y1="263" x2="532.5" y2="343.93"/><path class="cls-9" d="M532.5,356c-2.11-5.68-5.7-12.73-9.51-17.1l9.51,3.45L542,338.9C538.2,343.27,534.61,350.32,532.5,356Z"/><line class="cls-21" x1="798.5" y1="584" x2="798.5" y2="607.43"/><path class="cls-9" d="M798.5,619.5c-2.11-5.68-5.7-12.73-9.51-17.09l9.51,3.44,9.51-3.44C804.2,606.77,800.61,613.82,798.5,619.5Z"/><line class="cls-21" x1="666.5" y1="584" x2="666.5" y2="607.43"/><path class="cls-9" d="M666.5,619.5c-2.11-5.68-5.7-12.73-9.51-17.09l9.51,3.44,9.51-3.44C672.2,606.77,668.61,613.82,666.5,619.5Z"/><line class="cls-21" x1="532.5" y1="584" x2="532.5" y2="607.43"/><path class="cls-9" d="M532.5,619.5c-2.11-5.68-5.7-12.73-9.51-17.09l9.51,3.44,9.51-3.44C538.2,606.77,534.61,613.82,532.5,619.5Z"/><path class="cls-9" d="M293.36,156.63l-63.73,90.71a4,4,0,0,0,3.25,6.26H360.35a4,4,0,0,0,3.25-6.26l-63.73-90.71A4,4,0,0,0,293.36,156.63Z"/><text class="cls-23" transform="translate(255.38 237.24)">scheduling</text><text class="cls-24" transform="translate(251.38 138.24)">DDos Shield</text><line class="cls-21" x1="422.88" y1="102.51" x2="376.35" y2="102.51"/><polygon class="cls-9" points="437 102.51 417.1 94.38 421.82 102.51 417.1 110.64 437 102.51"/><polygon class="cls-9" points="362.22 102.51 382.12 94.38 377.4 102.51 382.12 110.64 362.22 102.51"/></svg>