<?xml version="1.0" encoding="utf-8"?>
<!-- Generator: Adobe Illustrator 16.0.0, SVG Export Plug-In . SVG Version: 6.00 Build 0)  -->
<!DOCTYPE svg PUBLIC "-//W3C//DTD SVG 1.1//EN" "http://www.w3.org/Graphics/SVG/1.1/DTD/svg11.dtd">
<svg version="1.1" id="Layer_1" xmlns="http://www.w3.org/2000/svg" xmlns:xlink="http://www.w3.org/1999/xlink" x="0px" y="0px"
	 width="63px" height="27.954px" viewBox="0 0 63 27.954" enable-background="new 0 0 63 27.954" xml:space="preserve">
<circle fill="#037281" cx="13.977" cy="13.977" r="13.977"/>
<path opacity="0.8745" fill="#FFFDFB" d="M18.345,8.189v11.574c0,0.182-0.147,0.328-0.328,0.328h-1.311
	c-0.181,0-0.327-0.146-0.327-0.328v-4.814l-5.338,4.941c-0.563,0.467-1.432,0.076-1.432-0.673V8.735
	c0-0.749,0.869-1.139,1.432-0.672l5.338,4.911V8.189c0-0.181,0.146-0.328,0.327-0.328h1.311C18.198,7.862,18.345,8.009,18.345,8.189
	z"/>
<g>
	<path fill="#4E4E4E" d="M43.256,18.97h-1.405l-5.037-7.801c-0.127-0.195-0.231-0.4-0.313-0.614h-0.041
		c0.036,0.209,0.055,0.658,0.055,1.345v7.07h-1.146V9.183h1.487l4.9,7.679c0.205,0.318,0.337,0.536,0.396,0.654h0.027
		c-0.045-0.281-0.068-0.762-0.068-1.439V9.183h1.146V18.97z"/>
	<path fill="#4E4E4E" d="M51.289,15.755h-4.935c0.018,0.778,0.228,1.379,0.628,1.802c0.4,0.424,0.951,0.635,1.651,0.635
		c0.787,0,1.511-0.259,2.17-0.777v1.051c-0.614,0.446-1.426,0.669-2.436,0.669c-0.988,0-1.764-0.317-2.328-0.952
		c-0.563-0.635-0.846-1.527-0.846-2.679c0-1.088,0.308-1.974,0.925-2.658c0.616-0.685,1.382-1.027,2.296-1.027
		c0.915,0,1.622,0.296,2.123,0.888c0.5,0.591,0.751,1.412,0.751,2.463V15.755z M50.143,14.807c-0.005-0.646-0.161-1.148-0.468-1.508
		c-0.308-0.359-0.733-0.539-1.28-0.539c-0.527,0-0.976,0.188-1.344,0.566c-0.369,0.377-0.597,0.871-0.683,1.48H50.143z"/>
	<path fill="#4E4E4E" d="M58.086,11.981l-2.348,3.535l2.308,3.453h-1.304l-1.372-2.266c-0.087-0.142-0.188-0.318-0.307-0.532h-0.027
		c-0.023,0.041-0.13,0.218-0.321,0.532l-1.398,2.266h-1.29l2.382-3.426l-2.279-3.563h1.303l1.352,2.389
		c0.1,0.177,0.198,0.359,0.294,0.546h0.026l1.748-2.935H58.086z"/>
	<path fill="#4E4E4E" d="M62.639,18.901c-0.265,0.146-0.612,0.219-1.045,0.219c-1.224,0-1.836-0.683-1.836-2.048v-4.136h-1.2v-0.955
		h1.2v-1.707l1.12-0.361v2.068h1.761v0.955h-1.761v3.938c0,0.468,0.079,0.803,0.238,1.003s0.423,0.3,0.792,0.3
		c0.282,0,0.525-0.077,0.73-0.231V18.901z"/>
</g>
<g>
</g>
<g>
</g>
<g>
</g>
<g>
</g>
<g>
</g>
<g>
</g>
</svg>
