<?xml version="1.0" encoding="UTF-8" standalone="no"?><!DOCTYPE svg PUBLIC "-//W3C//DTD SVG 1.1//EN" "http://www.w3.org/Graphics/SVG/1.1/DTD/svg11.dtd"><svg width="100%" height="100%" viewBox="0 0 5334 4267" version="1.1" xmlns="http://www.w3.org/2000/svg" xmlns:xlink="http://www.w3.org/1999/xlink" xml:space="preserve" xmlns:serif="http://www.serif.com/" style="fill-rule:evenodd;clip-rule:evenodd;stroke-linejoin:round;stroke-miterlimit:2;"><circle cx="2666.67" cy="2133.33" r="1596.22"/><g><g><path d="M3008.44,1289.39c34.176,75.027 53.118,157.345 53.118,243.671c0,2.741 0.389,5.4 0.507,8.114l282.559,-251.007l0,-299.421l-336.184,298.643Z" style="fill:#fff;fill-rule:nonzero;"/><path d="M2972.02,1533.06c0,-299.041 -267.57,-542.34 -596.444,-542.34l-0,223.842c200.765,-0 364.524,136.539 371.897,306.648l-152.081,135.101c40.517,70.532 67.022,148.879 75.923,231.966l135.662,-120.501c96.403,181.832 301.167,307.625 537.637,307.625l-0,-223.851c-205.443,0 -372.594,-142.863 -372.594,-318.49" style="fill:#fff;fill-rule:nonzero;"/><path d="M2957.77,2493.11l-0,-223.851c-205.461,0 -372.612,-142.871 -372.612,-318.489c-0,-299.05 -267.57,-542.35 -596.445,-542.35l0,223.851c174.569,-0 321.068,103.287 361.286,242.033l-78.636,69.853l-162.872,144.681l0.009,-0l-119.787,106.398l0,299.43l407.294,-361.801c82.472,209.721 303.112,360.245 561.763,360.245" style="fill:#fff;fill-rule:nonzero;"/></g><g transform="matrix(4.16667,0,0,4.16667,41.7054,10.5159)"><text x="476.025px" y="670.683px" style="font-family:'ArialMT', 'Arial', sans-serif;font-size:64px;fill:#fff;">xx.network</text><text x="371.856px" y="718.683px" style="font-family:'ArialMT', 'Arial', sans-serif;font-size:36px;fill:#fff;">messaging / payments / security</text></g></g></svg>