<?xml version="1.0" encoding="utf-8"?>
<!-- Generator: Adobe Illustrator 16.0.0, SVG Export Plug-In . SVG Version: 6.00 Build 0)  -->
<!DOCTYPE svg PUBLIC "-//W3C//DTD SVG 1.1//EN" "http://www.w3.org/Graphics/SVG/1.1/DTD/svg11.dtd">
<svg version="1.1" id="Layer_1" xmlns="http://www.w3.org/2000/svg" xmlns:xlink="http://www.w3.org/1999/xlink" x="0px" y="0px"
	 width="560.378px" height="107.773px" viewBox="25.811 342.129 560.378 107.773"
	 enable-background="new 25.811 342.129 560.378 107.773" xml:space="preserve">
<title>xxnetwork_LogoCombo</title>
<path fill="#46B9CA" d="M98.777,363.61c2.508,5.473,3.807,11.422,3.81,17.442c0,0.199,0,0.383,0,0.582l20.227-17.962v-21.42
	L98.777,363.61z"/>
<path fill="#46B9CA" d="M96.176,381.052c0-21.42-19.156-38.801-42.687-38.801v16.019c14.367,0,26.01,9.762,26.622,21.94
	l-10.894,9.669c2.953,5.092,4.804,10.748,5.432,16.601l9.715-8.629c6.9,13.02,21.558,22.017,38.479,22.017v-16.02
	C108.141,403.849,96.176,393.628,96.176,381.052z"/>
<path fill="#46B9CA" d="M95.151,449.765v-16.02c-14.704,0-26.668-10.235-26.668-22.797c0-21.42-19.141-38.816-42.672-38.816v16.02
	c12.485,0,22.95,7.39,25.842,17.319l-5.615,5.003l-11.659,10.358l0,0l-8.568,7.649v21.421l29.146-25.888
	C60.848,438.993,76.638,449.765,95.151,449.765z"/>
<path d="M198.242,387.814v32.054H185.13v-30.386c0-9.945-4.926-14.765-13.311-14.765c-9.333,0-15.606,5.646-15.606,16.83v28.32
	h-13.082V363.87h12.47v7.237c4.284-5.141,11.092-7.864,19.263-7.864C188.282,363.289,198.242,370.938,198.242,387.814z"/>
<path d="M263.619,396.092h-43.911c1.53,8.17,8.384,13.402,18.13,13.402c5.705,0.217,11.231-2.009,15.193-6.119l7.023,8.063
	c-5.034,5.982-12.898,9.18-22.537,9.18c-18.742,0-30.906-12.056-30.906-28.702s12.24-28.611,28.917-28.611
	c16.355,0,28.29,11.429,28.29,28.917C263.818,393.261,263.711,394.822,263.619,396.092z M219.601,387.386h31.748
	c-0.878-7.99-7.789-13.938-15.82-13.617C227.487,373.48,220.565,379.398,219.601,387.386z"/>
<path d="M310.023,416.823c-3.664,2.604-8.083,3.932-12.576,3.779c-12.24,0-19.278-6.503-19.278-18.865V374.81h-9.18v-10.465h9.18
	V351.63h13.097v12.791h14.979v10.465h-14.979v26.622c0,5.447,2.723,8.385,7.757,8.385c2.633,0.074,5.214-0.74,7.328-2.311
	L310.023,416.823z"/>
<path d="M411.233,363.87l-20.64,55.998h-12.576l-14.459-38.556l-14.719,38.556h-12.562l-20.486-55.998h12.362l14.765,41.31
	l15.407-41.31h11l15.086,41.493l15.193-41.493H411.233z"/>
<path d="M414.063,391.899c0-16.83,12.562-28.611,29.743-28.611c17.183,0,29.866,11.842,29.866,28.611s-12.47,28.703-29.866,28.703
	C426.411,420.603,414.063,408.653,414.063,391.899z M460.469,391.899c0-10.71-7.114-17.503-16.662-17.503
	c-9.547,0-16.555,6.809-16.555,17.503c0,10.695,7.13,17.488,16.555,17.488s16.724-6.809,16.724-17.488H460.469z"/>
<path d="M516.528,363.289v12.47c-1.009-0.199-2.033-0.301-3.061-0.306c-9.944,0-16.233,5.86-16.233,17.273v27.143h-13.097V363.87
	h12.47v8.17C500.387,366.226,507.195,363.289,516.528,363.289z"/>
<path d="M550.892,395.877l-9.746,9.18v14.78h-13.097v-77.709h13.097v46.94l27.127-25.199h15.729l-23.363,23.47l25.552,32.482
	h-15.912L550.892,395.877z"/>
</svg>
